<?xml version="1.0" encoding="UTF-8" standalone="no"?>
<!-- Created with Inkscape (http://www.inkscape.org/) -->

<svg
   xmlns:dc="http://purl.org/dc/elements/1.1/"
   xmlns:cc="http://creativecommons.org/ns#"
   xmlns:rdf="http://www.w3.org/1999/02/22-rdf-syntax-ns#"
   xmlns:svg="http://www.w3.org/2000/svg"
   xmlns="http://www.w3.org/2000/svg"
   xmlns:sodipodi="http://sodipodi.sourceforge.net/DTD/sodipodi-0.dtd"
   xmlns:inkscape="http://www.inkscape.org/namespaces/inkscape"
   width="345.04999"
   height="312.41"
   id="svg2"
   version="1.1"
   inkscape:version="0.48.4 r9939"
   sodipodi:docname="pgator.svg"
   inkscape:export-filename="/home/ncrashed/Изображения/pgator.png"
   inkscape:export-xdpi="90"
   inkscape:export-ydpi="90">
  <defs
     id="defs4" />
  <sodipodi:namedview
     id="base"
     pagecolor="#51ffff"
     bordercolor="#666666"
     borderopacity="1.0"
     inkscape:pageopacity="0"
     inkscape:pageshadow="2"
     inkscape:zoom="0.94678837"
     inkscape:cx="257.79965"
     inkscape:cy="389.35936"
     inkscape:document-units="px"
     inkscape:current-layer="layer1"
     showgrid="false"
     inkscape:object-nodes="true"
     inkscape:window-width="1920"
     inkscape:window-height="1025"
     inkscape:window-x="-2"
     inkscape:window-y="32"
     inkscape:window-maximized="1"
     inkscape:snap-smooth-nodes="true"
     borderlayer="false"
     width="372.05px" />
  <metadata
     id="metadata7">
    <rdf:RDF>
      <cc:Work
         rdf:about="">
        <dc:format>image/svg+xml</dc:format>
        <dc:type
           rdf:resource="http://purl.org/dc/dcmitype/StillImage" />
        <dc:title></dc:title>
      </cc:Work>
    </rdf:RDF>
  </metadata>
  <g
     inkscape:label="Layer 1"
     inkscape:groupmode="layer"
     id="layer1"
     transform="translate(0,-739.9513)">
    <path
       style="fill:none;stroke:#ffffff;stroke-width:3.99999952;stroke-linecap:butt;stroke-linejoin:miter;stroke-miterlimit:4;stroke-opacity:1;stroke-dasharray:none"
       d="m 193.27717,919.04197 1.48201,1.42389 c -0.26998,-0.68419 -0.73398,-1.20567 -1.48201,-1.42389 z m 1.51105,1.48201 c 0.74652,2.01442 -0.19359,5.55251 -1.10423,8.51423 l 2.09223,2.93495 c 2.43731,-1.21865 6.19268,-0.69286 9.03731,-1.83071 l -10.02531,-9.61847 z"
       id="path4173"
       inkscape:connector-curvature="0"
       inkscape:export-filename="/home/ncrashed/Изображения/pgator.png"
       inkscape:export-xdpi="90"
       inkscape:export-ydpi="90" />
    <path
       style="fill:#336791;fill-opacity:1;stroke:#ffffff;stroke-width:0.69999999;stroke-miterlimit:4;stroke-opacity:1;stroke-dasharray:none"
       d="m 203.35115,897.73203 c -0.2591,-0.002 -0.51971,0.008 -0.78125,0.0312 -5.4765,0.49659 -12.32707,6.81488 -14.625,13.5 -1.10302,3.20891 -0.50663,4.97299 1.8125,5.40625 1.10476,0.20639 1.47402,0.50609 5.40625,4.4375 4.86768,4.86667 9.30317,8.76624 23.4375,20.5625 19.29162,16.10043 26.12683,22.16224 35.75,31.78125 10.73053,10.72588 17.20135,18.71744 22.1875,27.37497 4.43144,7.6944 6.6082,14.2995 7,21.375 0.13696,2.4734 0.10056,2.727 -0.46875,3.7813 -1.49211,2.7631 -5.35703,3.2407 -11.6875,1.4062 -11.37898,-3.2975 -33.85814,-15.6976 -53.15625,-29.28122 -13.28721,-9.35266 -23.00106,-17.31769 -31.09375,-25.5625 -4.43835,-4.52179 -6.63846,-7.1627 -9.09375,-10.8125 -1.43936,-2.1396 -3.14067,-5.16707 -2.96875,-5.3125 0.0438,-0.0371 0.42706,-0.24764 0.84375,-0.46875 l 0.75,-0.40625 -0.90625,0 -0.90625,0 -0.15625,-2.34375 c -0.34477,-5.08193 -2.39842,-10.03295 -5.84375,-14.15625 -1.5537,-1.85944 -1.85266,-1.95902 -2.84375,-0.8125 -1.75783,2.03351 -3.28478,7.65454 -3,11 0.69079,8.11492 0.87115,18.58454 12.34375,30.40625 17.78248,18.96193 45.31617,38.42287 68.28125,55.12497 14.82471,10.3165 41.90168,11.8996 75.65625,4.7188 5.97159,-1.0339 11.51477,-2.8375 13.6875,-4.4688 0.44609,-0.3349 0.38374,-0.3844 -0.65625,-1 -1.8709,-1.1073 -3.91293,-3.1465 -5.34375,-5.3125 -2.21667,-3.3556 -3.10022,-5.7041 -5.34375,-14.1875 -0.66118,-2.5001 -1.53164,-5.3402 -1.9375,-6.3125 -1.41132,-3.3809 -1.10778,-4.1753 -1.25,-6.4419 -0.23753,-3.78529 0.46852,-6.51986 4.1875,-16.34378 2.20752,-5.8313 3.75168,-11.41478 3.79018,-12.98215 -4.31568,-6.94672 -12.65853,-3.99416 -16.76339,-6.41071 -0.9943,-0.63067 -3.3518,0.86087 -4.08929,0.95982 -1.32628,0.17789 -3.71514,1.35825 -7.1875,3.59375 -11.35406,7.30973 -13.61753,8.40428 -18.03125,8.625 -3.61314,0.18068 -4.55054,-0.24649 -8.53125,-3.9375 -5.58606,-5.17953 -9.79127,-8.70799 -21.15625,-17.8125 -15.91621,-12.75051 -24.61302,-20.40891 -27.3125,-24 -2.38954,-3.17879 -3.76776,-6.76552 -6.15625,-15.90625 -1.85793,-7.11028 -2.48174,-8.95484 -3.90625,-11.875 -2.46775,-5.05874 -6.051,-7.91482 -9.9375,-7.9375 z m 111.34375,72.3125 c 3.19525,-6e-5 4.34839,0.92914 5.30357,1.14732 5.87044,2.42598 -0.44253,9.76523 -2.95982,11.50893 -1.8992,1.2642 -5.51293,2.71073 -8.1875,3.28125 -2.94961,0.62924 -8.85253,0.65005 -12.125,0.0312 -3.04459,-0.5757 -3.19835,-0.77509 -2.65625,-3.375 1.16165,-5.5713 5.92051,-9.87029 13.21875,-11.90625 2.29635,-0.64056 2.81811,-0.68741 7.40625,-0.6875 z"
       id="path4429"
       inkscape:connector-curvature="0"
       sodipodi:nodetypes="scssssssssssssscccccsssccccsssssscccssssssssscccsscscc"
       inkscape:export-filename="/home/ncrashed/Изображения/pgator.png"
       inkscape:export-xdpi="90"
       inkscape:export-ydpi="90" />
    <path
       style="fill:#336791;fill-opacity:1;stroke:#ffffff;stroke-width:2.5;stroke-miterlimit:4;stroke-opacity:1;stroke-dasharray:none"
       d="m 257.5007,1019.0117 c -3.38064,-1.6844 -7.91588,-4.0558 -8.46735,-4.4275 -0.32561,-0.2195 -0.31772,-0.2401 0.16142,-0.4223 0.27706,-0.1053 2.56058,-0.7971 5.07448,-1.5372 6.9117,-2.035 7.45829,-2.2547 9.14348,-3.6757 0.48161,-0.4061 0.91874,-0.6953 0.9714,-0.6426 0.0527,0.053 -0.41921,1.4518 -1.04862,3.1091 -1.6499,4.3445 -2.44195,7.1203 -2.44195,8.5579 0,0.3389 -0.0603,0.6115 -0.13393,0.6058 -0.0737,-0.01 -1.54018,-0.7112 -3.25893,-1.5675 l 0,0 z"
       id="path4449"
       inkscape:connector-curvature="0"
       inkscape:export-filename="/home/ncrashed/Изображения/pgator.png"
       inkscape:export-xdpi="90"
       inkscape:export-ydpi="90" />
    <path
       style="fill:#336791;fill-opacity:1;stroke:#ffffff;stroke-width:0.69999999;stroke-miterlimit:4;stroke-opacity:1;stroke-dasharray:none"
       d="m 242.94713,1011.1503 c -4.74651,-2.775 -9.44152,-5.6709 -9.50564,-5.8633 -0.0346,-0.1038 2.10839,-0.919 4.8082,-1.829 6.76694,-2.2811 8.2831,-2.9111 9.59906,-3.98887 0.59986,-0.49126 1.14091,-0.84294 1.20233,-0.78152 0.0614,0.0614 -0.35753,1.33819 -0.931,2.83719 -2.11224,5.5213 -2.8996,8.8719 -2.46628,10.4953 0.10458,0.3918 0.14103,0.7087 0.081,0.7042 -0.06,0 -1.31448,-0.7128 -2.78769,-1.574 z"
       id="path4451"
       inkscape:connector-curvature="0"
       inkscape:export-filename="/home/ncrashed/Изображения/pgator.png"
       inkscape:export-xdpi="90"
       inkscape:export-ydpi="90" />
    <path
       style="fill:#336791;fill-opacity:1;stroke:#ffffff;stroke-width:1;stroke-miterlimit:4;stroke-opacity:1;stroke-dasharray:none"
       d="m 226.2286,1000.7083 c -5.45191,-3.65621 -8.42969,-5.74192 -8.50034,-5.95386 -0.0349,-0.10456 0.80703,-0.35358 1.95381,-0.57791 5.04027,-0.98596 9.91252,-2.87066 12.35227,-4.77816 0.67654,-0.52894 1.26746,-0.92432 1.31317,-0.87861 0.0457,0.0457 -0.44457,1.63503 -1.0895,3.53183 -1.80534,5.30967 -2.16114,6.82292 -2.16488,9.20751 -0.002,1.1048 -0.0131,2.0088 -0.0253,2.0089 -0.0121,10e-5 -1.73983,-1.1518 -3.83928,-2.5597 l 0,0 z"
       id="path4453"
       inkscape:connector-curvature="0"
       inkscape:export-filename="/home/ncrashed/Изображения/pgator.png"
       inkscape:export-xdpi="90"
       inkscape:export-ydpi="90" />
    <path
       style="fill:#336791;fill-opacity:1;stroke:#ffffff;stroke-width:1.39999998;stroke-miterlimit:4;stroke-opacity:1;stroke-dasharray:none"
       d="m 210.83664,989.82115 c -4.22914,-3.18644 -7.9788,-6.17313 -7.9788,-6.35529 0,-0.15627 1.81185,-0.74423 7.20952,-2.33956 5.07643,-1.50038 5.76611,-1.77571 7.16548,-2.86058 1.49818,-1.16146 1.58299,-1.20242 1.42767,-0.68954 -0.0707,0.23328 -0.67468,1.83307 -1.34229,3.5551 -2.04455,5.2737 -2.93326,8.6671 -2.71987,10.38549 0.045,0.36261 0.0494,0.75659 0.01,0.87551 -0.0417,0.12514 -1.6302,-0.95777 -3.7715,-2.57113 l 0,0 z"
       id="path4455"
       inkscape:connector-curvature="0"
       inkscape:export-filename="/home/ncrashed/Изображения/pgator.png"
       inkscape:export-xdpi="90"
       inkscape:export-ydpi="90" />
    <path
       style="fill:#336791;fill-opacity:1;stroke:#ffffff;stroke-width:2.5;stroke-miterlimit:4;stroke-opacity:1;stroke-dasharray:none"
       d="m 197.66963,979.20568 c -2.23796,-1.95734 -8.083,-7.41588 -8.7853,-8.20438 -0.30687,-0.34452 -0.26793,-0.36507 2.05357,-1.08392 1.3015,-0.40301 3.85298,-1.17301 5.66994,-1.7111 4.51928,-1.33838 5.17041,-1.60541 6.65245,-2.72821 0.7087,-0.53691 1.31375,-0.90058 1.34456,-0.80815 0.0308,0.0924 -0.56176,1.76351 -1.31682,3.71351 -2.37534,6.13454 -3.17803,8.9924 -3.19009,11.35785 -0.004,0.85931 -0.0127,1.56244 -0.0186,1.5625 -0.006,6e-5 -1.09022,-0.94408 -2.40969,-2.0981 z"
       id="path4457"
       inkscape:connector-curvature="0"
       inkscape:export-filename="/home/ncrashed/Изображения/pgator.png"
       inkscape:export-xdpi="90"
       inkscape:export-ydpi="90" />
    <path
       style="fill:#336791;fill-opacity:1;stroke:#ffffff;stroke-width:3.0999999;stroke-miterlimit:4;stroke-opacity:1;stroke-dasharray:none"
       d="m 184.90544,966.71615 c -1.68152,-1.89755 -3.13772,-3.744 -4.40921,-5.59083 -1.11785,-1.62365 -2.99553,-4.76633 -2.99553,-5.01361 0,-0.23839 2.14506,-0.70303 5.66162,-1.22637 3.92636,-0.58433 5.16255,-0.93202 6.35279,-1.78678 0.48974,-0.35171 0.88883,-0.51577 1.07803,-0.44316 0.16523,0.0634 0.30042,0.16785 0.30042,0.23211 0,0.0643 -0.56637,1.44182 -1.25859,3.06125 -1.38177,3.23263 -2.86101,7.2517 -3.19544,8.682 -0.11781,0.50388 -0.26877,1.45279 -0.33545,2.10868 l -0.12124,1.19253 -1.0774,-1.21582 z"
       id="path4459"
       inkscape:connector-curvature="0"
       inkscape:export-filename="/home/ncrashed/Изображения/pgator.png"
       inkscape:export-xdpi="90"
       inkscape:export-ydpi="90" />
    <path
       style="fill:#336791;fill-opacity:1;stroke:#ffffff;stroke-width:0;stroke-miterlimit:4;stroke-opacity:1;stroke-dasharray:none"
       d="m 203.1257,948.05729 c -0.0906,0.0965 0.43389,-1.68596 0.96421,-3.4524 1.33376,-4.44261 1.74902,-6.44215 1.76841,-8.51517 l 0.0162,-1.73205 1.08095,0.94298 c 0.59452,0.51864 3.11503,2.65236 5.60115,4.7416 2.48611,2.08924 4.49504,3.82049 4.46428,3.84721 -0.19524,0.16967 -2.83266,0.68475 -5.50234,1.0746 -3.99894,0.58395 -5.3554,0.98337 -6.57646,1.93647 -1.79641,1.40219 -1.65856,0.98876 -1.8164,1.15676 z"
       id="path4461"
       inkscape:connector-curvature="0"
       sodipodi:nodetypes="csscsscssc"
       inkscape:export-filename="/home/ncrashed/Изображения/pgator.png"
       inkscape:export-xdpi="90"
       inkscape:export-ydpi="90" />
    <path
       style="fill:#336791;fill-opacity:1;stroke:#ffffff;stroke-width:0;stroke-miterlimit:4;stroke-opacity:1;stroke-dasharray:none"
       d="m 213.78327,958.24586 c 5e-5,0 0.62612,-2.09125 1.53106,-3.45982 2.35884,-3.56736 4.02151,-5.98648 3.94518,-7.92529 -0.0621,-1.57768 -0.0608,-1.58314 0.30494,-1.29382 0.20203,0.15979 2.79596,2.33599 5.76429,4.836 l 5.39696,4.54546 -0.76429,0.23369 c -0.42036,0.12853 -2.53214,0.51159 -4.69285,0.85125 -5.37306,0.84463 -8.17342,0.73639 -10.44516,2.06723 -0.60519,0.35454 -1.03524,0.81494 -1.10168,0.81494 -0.0664,0 -0.0387,-0.30134 0.0616,-0.66964 z"
       id="path4463"
       inkscape:connector-curvature="0"
       sodipodi:nodetypes="csscscsssscc"
       inkscape:export-filename="/home/ncrashed/Изображения/pgator.png"
       inkscape:export-xdpi="90"
       inkscape:export-ydpi="90" />
    <path
       style="fill:#336791;fill-opacity:1;stroke:#ffffff;stroke-width:0.40000001;stroke-miterlimit:4;stroke-opacity:1;stroke-dasharray:none"
       d="m 230.59792,970.9914 c 0,0 0.49141,-1.67858 0.98744,-3.34822 1.40213,-4.71958 1.6891,-6.14317 1.6996,-8.43143 0.009,-1.99833 0.01,-2.00214 0.3714,-1.68195 0.19921,0.17651 1.61709,1.41277 3.15085,2.74725 1.53377,1.33448 3.8561,3.41404 5.16075,4.62125 l 2.37208,2.19492 -0.87503,0.22983 c -0.48126,0.1264 -2.2411,0.4332 -3.91074,0.68178 -5.22029,0.7772 -5.63771,1.60245 -7.76659,2.49035 -1.18976,0.49622 -1.18976,0.49622 -1.18976,0.49622 z"
       id="path4465"
       inkscape:connector-curvature="0"
       sodipodi:nodetypes="csccsscsssc"
       inkscape:export-filename="/home/ncrashed/Изображения/pgator.png"
       inkscape:export-xdpi="90"
       inkscape:export-ydpi="90" />
    <path
       style="fill:#336791;fill-opacity:1;stroke:#ffffff;stroke-width:0;stroke-miterlimit:4;stroke-opacity:1;stroke-dasharray:none"
       d="m 243.67052,981.6164 c 0.32224,-1.10837 0.47912,-1.73833 0.90978,-3.15363 1.27102,-4.17701 1.6587,-6.02996 1.6885,-8.07036 l 0.0206,-1.41172 1.00742,0.87464 c 0.55408,0.48105 2.92939,2.82116 5.27846,5.20024 3.86188,3.91122 4.23823,4.34499 3.92857,4.52804 -0.22776,0.13463 -1.74805,0.20559 -4.5389,0.21185 -5.09791,0.0114 -4.35273,1.10708 -7.0194,1.59014 -1.27506,0.23097 -1.27506,0.23097 -1.27506,0.23097 z"
       id="path4467"
       inkscape:connector-curvature="0"
       sodipodi:nodetypes="csccsscsscc"
       inkscape:export-filename="/home/ncrashed/Изображения/pgator.png"
       inkscape:export-xdpi="90"
       inkscape:export-ydpi="90" />
    <path
       style="fill:#336791;fill-opacity:1;stroke:#ffffff;stroke-width:0.60000002;stroke-miterlimit:4;stroke-opacity:1;stroke-dasharray:none"
       d="m 255.35641,994.36801 c 0.32224,-1.10837 0.47912,-1.73833 0.90978,-3.15363 1.27102,-4.17701 1.6587,-6.02996 1.6885,-8.07036 l 0.0206,-1.41172 1.00742,0.87464 c 0.55408,0.48105 2.92939,2.82116 5.27846,5.20024 3.86188,3.91122 4.23823,4.34499 3.92857,4.52804 -0.22776,0.13463 -1.74805,0.20559 -4.5389,0.21185 -5.09791,0.0114 -4.35273,1.10708 -7.0194,1.59014 -1.27506,0.23097 -1.27506,0.23097 -1.27506,0.23097 z"
       id="path4467-3"
       inkscape:connector-curvature="0"
       sodipodi:nodetypes="csccsscsscc"
       inkscape:export-filename="/home/ncrashed/Изображения/pgator.png"
       inkscape:export-xdpi="90"
       inkscape:export-ydpi="90" />
    <path
       style="fill:#336791;fill-opacity:1;stroke:#ffffff;stroke-width:0.35699999;stroke-miterlimit:4;stroke-opacity:1;stroke-dasharray:none"
       d="m 196.22252,929.12677 c -0.20008,-0.29496 -0.28589,-0.51085 -0.25638,-0.64502 0.0244,-0.11091 0.19537,-0.77003 0.37994,-1.46471 l 0.33558,-1.26304 1.70651,1.56834 c 0.93858,0.86258 1.71801,1.59604 1.73207,1.6299 0.0141,0.0339 -0.28728,0.0894 -0.66964,0.12341 -0.83862,0.0746 -2.18524,0.28535 -2.61426,0.40911 -0.17155,0.0495 -0.31218,0.0889 -0.3125,0.0877 -3.2e-4,-10e-4 -0.13592,-0.20181 -0.30132,-0.44566 l 0,0 z"
       id="path4542"
       inkscape:connector-curvature="0"
       inkscape:export-filename="/home/ncrashed/Изображения/pgator.png"
       inkscape:export-xdpi="90"
       inkscape:export-ydpi="90" />
    <g
       id="g4687"
       inkscape:export-filename="/home/ncrashed/Изображения/pgator.png"
       inkscape:export-xdpi="90"
       inkscape:export-ydpi="90"
       transform="translate(-163.71135,673.85703)">
      <path
         transform="matrix(1.2086846,0.22903736,0,0.64595067,130.34239,-9.5392878)"
         d="m 115.35714,201.29076 c 0,5.3256 -3.27791,9.64285 -7.32143,9.64285 -4.04351,0 -7.32143,-4.31725 -7.32143,-9.64285 0,-5.32561 3.27792,-9.64286 7.32143,-9.64286 4.04352,0 7.32143,4.31725 7.32143,9.64286 z"
         sodipodi:ry="9.6428576"
         sodipodi:rx="7.3214288"
         sodipodi:cy="201.29076"
         sodipodi:cx="108.03571"
         id="path4362"
         style="fill:none;stroke:#000000;stroke-width:1.29999995;stroke-miterlimit:4;stroke-opacity:1;stroke-dasharray:none"
         sodipodi:type="arc" />
      <path
         transform="matrix(0.7479239,0.1417264,0,0.39970886,182.02162,51.446939)"
         d="m 115.35714,201.29076 c 0,5.3256 -3.27791,9.64285 -7.32143,9.64285 -4.04351,0 -7.32143,-4.31725 -7.32143,-9.64285 0,-5.32561 3.27792,-9.64286 7.32143,-9.64286 4.04352,0 7.32143,4.31725 7.32143,9.64286 z"
         sodipodi:ry="9.6428576"
         sodipodi:rx="7.3214288"
         sodipodi:cy="201.29076"
         sodipodi:cx="108.03571"
         id="path4362-3"
         style="fill:#336791;fill-opacity:1;stroke:#ffffff;stroke-width:1.29999995;stroke-miterlimit:4;stroke-opacity:1;stroke-dasharray:none"
         sodipodi:type="arc" />
      <path
         transform="matrix(-0.7479239,0.1417264,0,0.39970886,414.39186,49.309613)"
         d="m 115.35714,201.29076 c 0,5.3256 -3.27791,9.64285 -7.32143,9.64285 -4.04351,0 -7.32143,-4.31725 -7.32143,-9.64285 0,-5.32561 3.27792,-9.64286 7.32143,-9.64286 4.04352,0 7.32143,4.31725 7.32143,9.64286 z"
         sodipodi:ry="9.6428576"
         sodipodi:rx="7.3214288"
         sodipodi:cy="201.29076"
         sodipodi:cx="108.03571"
         id="path4362-3-9"
         style="fill:#336791;fill-opacity:1;stroke:#ffffff;stroke-width:1.29999995;stroke-miterlimit:4;stroke-opacity:1;stroke-dasharray:none"
         sodipodi:type="arc" />
      <path
         inkscape:connector-curvature="0"
         id="path4546"
         d="m 355.42074,274.03732 c -1.41916,-0.81587 -12.19874,-9.58321 -18.76323,-15.26066 -8.4928,-7.34519 -14.05616,-11.20276 -21.2456,-14.73145 -3.70189,-1.81694 -8.48264,-4.62366 -10.62391,-6.23715 -6.97642,-5.25689 -18.64037,-18.14844 -25.28022,-27.94092 -1.34942,-1.99012 -2.99098,-4.09905 -3.64792,-4.68649 -1.75051,-1.56535 -5.42451,-3.5502 -7.93116,-4.28476 -2.70129,-0.7916 -2.88903,0.4653 2.51995,-16.87052 8.17531,-26.20193 9.50934,-35.70329 6.07872,-43.29454 -2.60513,-5.7646 -9.02412,-8.98099 -17.92296,-8.98075 -4.04513,1.1e-4 -14.30087,1.55248 -18.44616,2.79213 -1.47806,0.44202 -2.87748,0.73326 -3.10983,0.64721 -0.6628,-0.24546 4.26962,-14.55931 7.16127,-20.78193 7.16098,-15.409893 16.22048,-26.651906 24.9575,-30.969979 3.23223,-1.597454 4.417,-1.907201 8.01783,-2.096196 4.74047,-0.248811 14.48011,0.61889 19.45124,1.732904 22.1487,4.963458 36.11224,17.584761 42.88834,38.765731 0.87795,2.74434 1.53093,5.02885 1.45105,5.07668 -0.0799,0.0478 -1.4886,0.35507 -3.13051,0.68274 -6.21304,1.23992 -12.53116,5.36374 -15.20309,9.92303 -2.65344,4.52776 -3.41909,7.67471 -3.44951,14.17809 -0.0216,4.61911 0.23448,7.11616 1.0765,10.49682 2.33257,9.36516 7.79047,20.74553 14.24282,29.69797 l 3.06452,4.25192 -0.3043,3.78808 c -0.46014,5.72793 -1.41375,8.5771 -3.55249,10.61396 -4.08092,3.88654 -3.95799,6.35194 0.62325,12.49995 3.64279,4.88861 5.19968,7.62127 7.23617,12.70099 1.84489,4.60176 5.27839,10.06323 11.2859,17.95178 6.86826,9.01882 8.45115,13.85741 6.18053,18.89275 -0.98494,2.18422 -1.78255,2.50166 -3.6247,1.44261 l 0,0 z"
         style="fill:#336791;fill-opacity:1;stroke:#ffffff;stroke-width:4.5;stroke-miterlimit:4;stroke-opacity:1;stroke-dasharray:none" />
      <path
         inkscape:connector-curvature="0"
         id="path4548"
         d="m 334.93109,184.15164 c -4.74991,-7.83569 -8.08451,-15.21993 -9.75061,-21.59201 -1.05341,-4.02884 -1.77612,-11.20701 -1.42598,-14.16336 l 0.30274,-2.55614 1.42583,1.72978 c 2.74411,3.32908 8.32321,3.46427 13.27843,0.32176 5.1867,-3.2893 5.81539,-8.50924 1.30574,-10.84127 -2.67046,-1.38095 -8.31993,-0.71271 -11.18407,1.32289 -1.90334,1.35274 -2.3293,1.17954 -0.89396,-0.36351 2.91442,-3.13312 9.39525,-6.2598 12.97499,-6.2598 1.40234,0 1.43956,0.0758 2.04647,4.16688 1.63855,11.04512 2.06917,37.07074 0.68372,41.32196 -0.32259,0.98985 -1.47157,2.98596 -2.55329,4.4358 -1.08172,1.44983 -2.22245,3.65147 -2.53495,4.89252 -0.3125,1.24105 -0.63001,2.25646 -0.70558,2.25646 -0.0756,0 -1.41184,-2.10238 -2.96948,-4.67196 z"
         style="fill:#336791;fill-opacity:1;stroke:#ffffff;stroke-width:4.5;stroke-miterlimit:4;stroke-opacity:1;stroke-dasharray:none" />
      <path
         inkscape:connector-curvature="0"
         id="path4550"
         d="m 254.10843,197.64585 c -6.85343,-1.69742 -10.88475,-3.63298 -13.20929,-6.34221 -2.89643,-3.37574 -5.77016,-9.63044 -6.94092,-15.10695 -1.7096,-7.99704 -1.26935,-23.44408 0.96325,-33.79756 0.36677,-1.70086 0.44455,-1.7447 5.50931,-3.10604 14.5712,-3.91653 25.44849,-3.70098 29.83874,0.5913 2.70296,2.64265 3.31024,5.12315 2.98532,12.19389 -0.33867,7.37027 -1.07093,10.43279 -7.54621,31.56076 -4.11783,13.43593 -4.80164,15.26797 -5.6904,15.24567 -0.55559,-0.0139 -3.21499,-0.57143 -5.9098,-1.23886 z m 11.50156,-45.75455 c 3.7855,-0.9532 5.70362,-4.2298 4.19662,-7.16881 -2.61583,-5.1015 -11.08524,-8.07573 -15.43826,-5.4215 -2.13794,1.30359 -2.85439,2.77598 -2.52948,5.19835 0.42843,3.19425 3.51454,5.95802 8.00038,7.16478 3.39005,0.91197 3.097,0.90043 5.77074,0.22718 z"
         style="fill:#336791;fill-opacity:1;stroke:#ffffff;stroke-width:4.5;stroke-miterlimit:4;stroke-opacity:1;stroke-dasharray:none" />
      <path
         inkscape:connector-curvature="0"
         id="path4552"
         d="m 344.43036,218.41762 c -2.04147,-0.76003 -5.17877,-3.05726 -6.04009,-4.42273 -0.36772,-0.58295 -0.20601,-1.20926 0.60705,-2.35109 0.60955,-0.85604 1.51631,-3.16316 2.01502,-5.12692 l 0.90673,-3.57047 0.97091,1.08533 c 3.1215,3.48936 10.10443,5.93425 18.33002,6.41778 l 5.8673,0.3449 -3.85063,2.39749 c -8.59897,5.35393 -14.24668,6.92326 -18.80631,5.22571 z"
         style="fill:#336791;fill-opacity:1;stroke:#ffffff;stroke-width:4.5;stroke-miterlimit:4;stroke-opacity:1;stroke-dasharray:none" />
      <path
         inkscape:connector-curvature="0"
         id="path4554"
         d="m 246.72517,224.15373 c -3.16258,-0.56693 -5.30383,-1.5396 -4.13073,-1.87641 3.91591,-1.12427 9.97189,-3.7004 13.09711,-5.57131 6.95038,-4.16084 10.12874,-7.33921 10.13317,-10.13323 0.002,-1.04322 0.17441,-1.14981 1.39084,-0.85819 3.17558,0.7613 5.88257,3.05655 9.28022,7.86867 2.84335,4.02706 3.26324,4.87924 2.64407,5.36624 -1.14846,0.9033 -10.0735,3.56985 -14.86379,4.44087 -5.54934,1.00904 -14.1046,1.38115 -17.55089,0.76336 z"
         style="fill:#336791;fill-opacity:1;stroke:#ffffff;stroke-width:4.5;stroke-miterlimit:4;stroke-opacity:1;stroke-dasharray:none" />
      <path
         inkscape:connector-curvature="0"
         id="path4556"
         d="m 213.92025,223.03052 c -4.75317,-2.75913 -15.49952,-24.18604 -22.85554,-45.57114 -7.86543,-22.86606 -11.46814,-39.60605 -11.95704,-55.55839 -0.32107,-10.47634 0.35898,-15.48723 2.81375,-20.73296 3.86704,-8.26368 15.47972,-14.766002 30.61363,-17.14158 11.40228,-1.789821 19.60508,-1.487464 28.4321,1.048013 4.34537,1.248168 12.23255,4.618072 12.23255,5.226525 0,0.172173 -1.15232,1.897786 -2.56071,3.834693 -8.90123,12.241539 -15.90532,28.304239 -19.61523,44.984229 -3.24816,14.60391 -3.63361,29.75923 -1.01795,40.02371 1.97901,7.76609 6.56021,15.41643 10.86318,18.1409 1.20577,0.76343 2.2006,1.58768 2.21074,1.83166 0.0378,0.90828 -3.28491,6.25402 -6.3462,10.21019 -3.80713,4.92006 -9.13568,9.92971 -13.08227,12.29935 -3.27498,1.96638 -7.67044,2.60093 -9.73101,1.4048 l 0,0 z"
         style="fill:#336791;fill-opacity:1;stroke:#ffffff;stroke-width:4.5;stroke-miterlimit:4;stroke-opacity:1;stroke-dasharray:none" />
      <path
         inkscape:connector-curvature="0"
         id="path4558"
         d="m 349.18162,164.3274 c -0.10614,-32.42963 -4.63551,-50.37414 -16.50316,-65.382469 -4.81232,-6.085856 -10.18067,-10.34287 -18.57155,-14.726929 -5.05461,-2.640921 -5.21517,-2.387579 2.47986,-3.912672 12.00972,-2.38023 23.81337,-2.711402 30.80965,-0.864421 10.3855,2.741715 17.36236,9.88439 20.01363,20.489266 1.03775,4.150885 0.89419,19.191505 -0.23862,25.001275 -2.7222,13.96114 -9.07172,32.12511 -15.89019,45.45686 l -2.06655,4.04062 -0.0331,-10.10153 0,0 z"
         style="fill:#336791;fill-opacity:1;stroke:#ffffff;stroke-width:4.5;stroke-miterlimit:4;stroke-opacity:1;stroke-dasharray:none" />
      <path
         inkscape:connector-curvature="0"
         id="path4560"
         d="m 328.13067,148.3366 c -0.95843,-0.46009 -1.73576,-1.13373 -2.17857,-1.88799 -0.29943,-0.51004 -0.34596,-0.72575 -0.34635,-1.60588 -4.2e-4,-0.91958 0.0442,-1.10655 0.46716,-1.95717 1.21444,-2.44247 3.91241,-4.35248 7.31058,-5.17548 1.54616,-0.37447 3.96254,-0.40786 5.09585,-0.0704 2.34965,0.69958 3.5319,2.01775 3.52176,3.92663 -0.006,1.12317 -0.33729,1.9923 -1.19265,3.12847 -0.56128,0.74554 -2.39264,2.36273 -2.6769,2.36384 -0.0554,2.2e-4 0.0699,-0.21268 0.27834,-0.47311 0.90347,-1.12876 1.23014,-2.82966 0.72714,-3.78607 -0.74268,-1.41216 -2.46354,-2.15798 -4.65202,-2.01619 -2.70529,0.17527 -5.39243,1.79178 -6.3527,3.82161 -0.61741,1.30511 -0.32968,2.89313 0.67412,3.72055 0.57731,0.47586 0.3017,0.48044 -0.67576,0.0112 z"
         style="fill:#336791;fill-opacity:1;stroke:#ffffff;stroke-width:0.50507629;stroke-miterlimit:4;stroke-opacity:1;stroke-dasharray:none" />
      <path
         inkscape:connector-curvature="0"
         id="path4562"
         d="m 257.81162,149.7497 c -1.95966,-0.93569 -3.72782,-2.5194 -4.42826,-3.96633 -0.78335,-1.61819 -0.61748,-3.60456 0.38871,-4.6548 2.08068,-2.17176 6.94316,-2.19784 10.73181,-0.0576 3.05318,1.72479 4.54569,3.61008 4.54569,5.74196 0,0.7444 -0.15703,1.49886 -0.37078,1.78146 -0.35042,0.4633 -0.37122,0.44461 -0.37881,-0.3406 -0.0175,-1.81125 -1.4874,-3.63685 -3.78186,-4.69704 -2.75117,-1.27123 -5.44354,-1.08892 -7.00692,0.47446 -1.39254,1.39254 -1.1122,3.36951 0.72081,5.08327 0.46327,0.43312 1.06958,0.91265 1.34738,1.06561 1.11114,0.61183 -0.30924,0.266 -1.76777,-0.43042 l 0,0 z"
         style="fill:#336791;fill-opacity:1;stroke:#ffffff;stroke-width:1.01015258;stroke-miterlimit:4;stroke-opacity:1;stroke-dasharray:none" />
    </g>
    <path
       style="fill:#336791;fill-opacity:1;stroke:#ffffff;stroke-width:0;stroke-miterlimit:4;stroke-opacity:1;stroke-dasharray:none"
       d="m 297.67767,983.86659 c -0.6875,-0.13336 -1.23393,-0.44336 -1.21429,-0.68889 0.0196,-0.24554 0.0598,-0.64732 0.0893,-0.89286 0.0399,-0.33287 1.34809,-0.45064 5.14285,-0.46299 5.6953,-0.0185 7.78123,-0.56137 10.72583,-2.79123 1.83158,-1.387 3.55635,-4.36535 2.80188,-4.8383 -0.79076,-0.49569 -4.59494,-0.80963 -7.14768,-0.58985 l -2.36217,0.20336 1.42857,-0.61053 c 1.16176,-0.4965 2.60696,-0.61352 7.73774,-0.62656 3.47004,-0.009 6.41389,0.0885 6.54187,0.2163 0.35479,0.35425 -1.52511,3.84931 -3.06154,5.69195 -1.44083,1.72798 -4.23853,3.41838 -7.72689,4.66866 -1.61045,0.57721 -3.11955,0.76384 -6.88403,0.85134 -2.65179,0.0616 -5.38393,0.003 -6.07143,-0.1304 z"
       id="path4566"
       inkscape:connector-curvature="0"
       inkscape:export-filename="/home/ncrashed/Изображения/pgator.png"
       inkscape:export-xdpi="90"
       inkscape:export-ydpi="90" />
    <path
       style="fill:none;stroke:#000000;stroke-width:2;stroke-miterlimit:4;stroke-opacity:1;stroke-dasharray:none"
       d="m 171.02095,746.70855 c -0.61231,0.01 -1.23224,0.0321 -1.84375,0.0625 -9.39699,1.16485 -20.40473,0.14331 -28.15625,6.3125 -0.0795,0.13849 -0.15029,0.26912 -0.21875,0.40625 -2.64097,-0.83431 -5.33008,-1.50497 -8.09375,-1.9375 -6.74514,-1.33561 -13.64602,-1.89345 -20.53125,-1.71875 -8.02276,0.65701 -14.69242,4.61284 -20.28125,10.03125 -3.69728,-3.57537 -10.2505,-4.4031 -14.84375,-6.34375 -5.6806,-1.59392 -11.59759,-2.31376 -17.5,-2.125 -17.32569,0.68983 -37.748748,4.93577 -47.124998,20.96875 -7.7021405,16.9239 -2.9416405,36.34227 0.375,53.81251 6.18992,25.85235 15.25501,51.60156 30.124998,73.71875 5.33925,5.9951 14.78535,5.13059 20.625,0.3125 8.4836,-5.71714 15.81866,-13.98102 19.71875,-23.4375 0.96421,0.29497 1.97561,0.54663 3,0.71875 2.79598,1.2269 6.40568,1.9837 9.5625,1.46875 -0.82034,1.97229 -1.67238,3.95334 -3.84375,4.625 -6.11863,4.46788 -11.30447,11.33036 -17.80357,15.27232 1.24803,5.07537 7.48125,2.87321 11.15178,3.92857 11.61597,-0.058 22.262,1.31639 32.37054,-4.73214 10.23058,12.51744 22.64258,23.40367 37.5625,29.75 13.10863,7.90658 22.60542,21.82715 37.03125,27.1875 9.04426,-0.68183 11.27962,-12.85769 7.375,-19.59375 -5.32139,-11.87921 -16.08549,-20.75766 -19.65625,-33.53125 -0.61507,-1.19727 -1.40654,-2.31935 -2.25,-3.40625 6.78112,2.22494 14.96902,0.42162 20.75,-3.71875 7.85518,-4.48928 15.21278,-9.77215 23.21875,-14.03125 -12.5608,-2.76767 -26.76439,1.27397 -38.15625,-5.75 -2.86373,-1.7294 -5.43589,-2.79628 -5.09821,-7.95982 15.49484,-27.05384 31.80399,-61.33585 30.66071,-91.63393 -2.12122,-15.92226 -16.68261,-28.27547 -32.625,-28.50001 -1.8319,-0.12285 -3.66307,-0.18539 -5.5,-0.15625 z"
       id="path4362-33"
       inkscape:connector-curvature="0"
       sodipodi:nodetypes="cccccccccccccccccccccccccccccccc"
       inkscape:export-filename="/home/ncrashed/Изображения/pgator.png"
       inkscape:export-xdpi="90"
       inkscape:export-ydpi="90" />
    <path
       style="fill:none;stroke:#000000;stroke-width:2;stroke-miterlimit:4;stroke-opacity:1;stroke-dasharray:none"
       d="m 202.37347,892.26328 c -0.2732,0.002 0.27326,-0.0222 0,0 -9.05404,5.33229 -17.94632,11.06232 -15.62946,23.3437 5.02984,5.48619 10.85894,17.7876 13.60267,17.91071 5.84581,12.04221 0.14255,14.78575 -1.9427,18.89227 -5.18959,4.72572 -15.74504,0.0625 -16.56622,-2.67798 0,0 -3.72885,-3.47182 -5.24554,-5.01339 -7.23758,-2.86122 -9.6963,-10.76421 -14.53125,-10.125 -9.48413,7.39456 -6.53041,19.98961 -3.9375,30.20089 3.48324,10.69576 10.85172,19.53764 17.9375,28 8.28532,6.89128 18.86292,10.31682 26,18.62502 16.05774,14.882 33.1639,32.4322 56.40625,33.6562 14.87071,2.0419 29.90597,2.4667 44.9375,2.1563 11.51022,-0.3037 24.74178,-0.9618 33.71875,-8.75 3.06086,-4.9693 -2.39407,-9.2359 -5.84375,-11.875 -4.51001,-8.6212 -7.13964,-18.3327 -8.40625,-27.87502 1.89733,-8.59537 7.22973,-16.82864 6.4375,-25.8125 -1.53842,-4.36248 -4.79418,-11.92117 -10.53125,-9.46875 -5.77406,3.46369 -11.54691,-4.2623 -17.625,-1.1875 -8.28599,2.51135 -14.26192,11.41831 -23.34375,11.34375 -5.51777,-3.59233 -9.78212,-9.22887 -15.375,-13 -12.67987,-10.77278 -27.43683,-20.00532 -37.1875,-33.4375 -4.76147,-11.44479 -4.72343,-27.37937 -17.3125,-33.6875 -1.74238,-0.78234 -3.65013,-1.23461 -5.5625,-1.21875 z m 11.7454,55.85089 c -0.2507,2.88751 -3.51777,13.41196 -3.51777,13.41196 0,0 -13.3512,0.50406 -18.32133,2.14335 1.24966,-3.44557 6.12421,-11.25952 6.12421,-11.25952 0,0 9.44812,-2.18146 15.71489,-4.29579 z m 16.45907,10.77236 c -0.7899,3.6556 -4.8602,14.95177 -4.8602,14.95177 -9.76619,1.31618 -16.83075,6.14945 -22.24465,5.0779 1.2837,-4.26539 6.86866,-13.01119 7.12801,-17.39007 9.67838,-1.19584 13.26837,-1.45188 19.97684,-2.6396 z m 10.8758,13.57519 c 0,0 -3.23669,10.37357 -3.98906,13.01952 -7.31001,1.50747 -11.90875,2.60367 -19.11147,3.92227 0.44248,-2.12652 7.36453,-15.56521 7.36453,-15.56521 0,0 6.79825,-1.37658 15.736,-1.37658 z m 13.07138,11.83106 c -0.42482,1.82578 -2.56138,9.08018 -3.04775,10.89832 -5.42995,0.20077 -10.86665,1.48565 -15.8539,3.25968 0.65467,-2.72579 1.48798,-8.19852 2.12246,-10.93417 4.65043,-0.77186 12.16852,-2.32757 16.77919,-3.22383 z m 11.60216,11.66894 c 2.69081,3.89073 7.07943,8.56848 9.30028,12.85008 1.51107,3.8306 2.5969,11.7517 1.14102,15.4654 -3.29596,-0.4272 -7.20964,-2.8327 -10.28886,-4.1389 -2.35592,-5.3221 -3.22119,-9.9979 -0.75917,-12.8421 -0.33663,0.7743 -16.16992,4.229 -16.16992,4.229 0,0 3.10126,-12.49256 3.57773,-14.79872 4.05596,-0.66847 9.19203,-0.0327 13.19892,-0.76476 z"
       id="path4429-9"
       inkscape:connector-curvature="0"
       sodipodi:nodetypes="ccccccccccccccccccccccccccccccccccccccccccccccccccccc"
       inkscape:export-filename="/home/ncrashed/Изображения/pgator.png"
       inkscape:export-xdpi="90"
       inkscape:export-ydpi="90" />
    <path
       style="fill:#ffffff;fill-opacity:1;stroke:#ffffff;stroke-width:0.40927836;stroke-miterlimit:4;stroke-opacity:1;stroke-dasharray:none"
       d="m 282.70378,1046.0857 c -7.69216,-0.3168 -14.10231,-0.8227 -21.58614,-1.7037 -1.77904,-0.2094 -3.97691,-0.4504 -4.88415,-0.5355 -10.71589,-1.0047 -21.63898,-6.0086 -33.40318,-15.3018 -3.5057,-2.7694 -6.59591,-5.4377 -11.55221,-9.9751 -5.30516,-4.8568 -7.03672,-6.4886 -9.3097,-8.7733 -4.071,-4.0921 -6.19915,-5.6406 -15.04896,-10.94997 -5.84352,-3.50578 -9.51012,-6.04764 -10.63861,-7.37519 -1.12139,-1.31921 -4.79255,-5.84119 -5.87886,-7.24134 -6.48424,-8.35759 -10.2234,-15.25863 -11.79972,-21.77778 -1.63786,-6.77361 -2.22973,-11.31863 -1.9384,-14.8851 0.39475,-4.83254 1.79541,-8.11294 4.68581,-10.97432 l 1.04919,-1.03867 0.58923,0.0808 c 0.71365,0.0978 1.87382,0.70678 2.66269,1.39764 l 0.58152,0.50926 -0.47249,0.55199 c -1.36788,1.59807 -2.6309,5.33531 -2.99613,8.86551 -0.13913,1.34484 -0.0348,3.24891 0.39956,7.29222 0.65761,6.12147 1.74296,10.07791 4.00622,14.60392 2.09574,4.19102 4.24984,7.07171 9.08544,12.15001 9.74924,10.23856 23.74567,22.01632 44.30561,37.28252 7.61659,5.6555 23.35863,17.0704 24.60233,17.8398 5.57697,3.4497 13.08739,5.8881 21.91079,7.1135 10.40567,1.4453 23.28801,1.1735 37.10407,-0.7826 5.68206,-0.8045 15.84773,-2.6833 19.71797,-3.6444 5.11412,-1.2698 9.4328,-3.12 9.5455,-4.0894 0.0348,-0.2996 -0.11317,-0.442 -1.21528,-1.1687 -2.0665,-1.3627 -4.15956,-3.6163 -5.64824,-6.0815 -1.65655,-2.7432 -2.27472,-4.4491 -4.44933,-12.2783 -0.65548,-2.36 -1.64241,-5.6086 -2.19317,-7.2193 l -1.00137,-2.9283 -0.13406,-2.3527 c -0.26077,-4.57703 0.0989,-6.14879 3.6213,-15.82522 1.9891,-5.4643 3.06108,-8.76004 3.71759,-11.4295 0.71289,-2.89872 0.71285,-2.89768 0.12508,-3.75109 -0.98535,-1.43069 -2.57973,-2.7123 -4.24751,-3.41426 -1.66191,-0.69948 -2.98898,-0.96053 -6.83417,-1.34433 -2.76675,-0.27616 -3.81798,-0.48352 -4.93367,-0.9732 -0.50583,-0.22201 -1.08798,-0.40286 -1.29365,-0.40189 -0.20567,9.2e-4 -0.87894,0.18325 -1.49616,0.40507 -0.61722,0.22182 -1.74604,0.61065 -2.50848,0.86407 -1.96956,0.65464 -3.70049,1.60578 -9.4206,5.17661 -5.97001,3.72683 -5.60418,3.50562 -7.34661,4.44226 -3.61647,1.94403 -5.91187,2.54078 -9.29607,2.41673 -2.57757,-0.0945 -3.07791,-0.39731 -7.93871,-4.80495 -5.08128,-4.60756 -8.94967,-7.8745 -17.02578,-14.37867 -9.28608,-7.47862 -16.04143,-13.02992 -19.67177,-16.16554 -5.05771,-4.36848 -9.34028,-8.50791 -10.71986,-10.36157 -1.96427,-2.63927 -3.29826,-5.84225 -5.05627,-12.1403 -0.43617,-1.5626 -0.79304,-2.87505 -0.79304,-2.91656 0,-0.0415 0.81195,-0.0589 1.80433,-0.0387 l 1.80434,0.0367 0.37934,1.38627 c 0.71491,2.61254 1.43426,4.91996 2.03242,6.51926 0.64622,1.72779 1.19006,2.55132 3.56144,5.39305 4.79786,5.74948 10.96866,11.36869 21.64211,19.70756 4.97423,3.88624 8.09323,6.36347 10.26453,8.15249 1.21605,1.00194 2.82015,2.27671 3.56468,2.8328 1.91639,1.43136 2.72997,2.1297 5.63926,4.84047 4.79469,4.4675 5.70074,5.2528 7.85846,6.81113 l 1.31795,0.95185 1.0585,-0.0846 c 4.57425,-0.36554 6.71352,-1.38813 15.30872,-7.31774 3.12495,-2.15582 4.74145,-3.02595 7.5157,-4.04556 2.65826,-0.97698 3.75509,-0.89591 7.89652,0.58368 3.28231,1.17266 3.75492,1.30869 5.12577,1.47537 1.67313,0.20343 2.61136,0.0314 4.75337,-0.87147 2.89807,-1.22158 5.34903,0.47127 7.65513,5.28732 0.41725,0.87136 0.92322,2.02239 1.1244,2.55782 0.36031,0.95896 0.36468,1.00635 0.29218,3.16861 -0.12598,3.75641 -0.74772,6.31393 -3.13336,12.88913 -1.36836,3.77143 -2.64348,7.62476 -3.03557,9.17333 -0.27815,1.09859 -0.27937,1.14855 -0.0649,2.64047 1.3263,9.2248 3.83785,17.663 7.54561,25.3513 l 0.85955,1.7824 1.20116,0.9241 c 0.66062,0.5083 1.77232,1.4886 2.47041,2.1785 1.99945,1.9757 2.80098,3.4032 2.81718,5.0169 0.0139,1.3825 -0.31078,2.13 -1.27412,2.9332 -1.29621,1.0807 -3.04686,2.1739 -5.03752,3.1458 -5.35711,2.6153 -10.98505,3.8325 -20.79398,4.4973 -2.655,0.1799 -23.40951,0.2667 -27.13119,0.1135 l 0,0 z"
       id="path5066"
       inkscape:connector-curvature="0" />
    <path
       style="fill:#ffffff;fill-opacity:1;stroke:#ffffff;stroke-width:0.40927836;stroke-miterlimit:4;stroke-opacity:1;stroke-dasharray:none"
       d="m 276.06518,1028.0652 c -0.10892,-0.021 -0.64362,-0.1093 -1.18823,-0.1953 -11.20886,-1.7714 -39.72659,-17.5106 -63.24011,-34.90278 -12.00763,-8.88165 -21.39057,-17.15523 -28.39297,-25.03605 -2.84229,-3.19884 -5.97017,-7.62984 -7.44474,-10.54632 -0.32537,-0.64353 -0.33981,-0.72982 -0.15331,-0.91632 0.24833,-0.24833 0.16659,-0.34535 0.92569,1.09865 1.32308,2.51681 3.82429,6.15053 5.99792,8.71367 1.94157,2.2895 4.41978,5.08297 4.50932,5.08297 0.0474,0 0.16018,-0.8169 0.2507,-1.81534 0.28184,-3.1087 0.53293,-4.50326 1.14124,-6.33853 0.55216,-1.66587 2.57805,-6.88701 2.8252,-7.28115 0.0954,-0.15222 0.18674,-0.15708 0.50148,-0.0267 0.43595,0.18058 1.74318,0.0279 2.84977,-0.33296 0.34962,-0.11399 0.65509,-0.18635 0.67882,-0.1608 0.0237,0.0255 -0.61815,1.23468 -1.42639,2.68696 -1.44512,2.59666 -3.45107,6.95642 -3.23912,7.03998 0.0595,0.0234 0.83779,-0.1682 1.72958,-0.42589 1.8868,-0.54519 3.81874,-0.90583 6.77042,-1.26388 3.01621,-0.36586 10.23196,-0.91174 10.23196,-0.77405 0,0.19595 -0.97547,2.89178 -1.44145,3.98361 -0.30477,0.71411 -1.46462,3.17968 -2.57744,5.47905 -1.68309,3.47771 -3.2425,7.10483 -3.2425,7.54193 0,0.13635 2.10567,0.40172 3.17755,0.40047 1.86841,-0.002 3.71728,-0.45214 9.01623,-2.19418 2.0956,-0.68893 3.83375,-1.22902 3.86257,-1.20021 0.12636,0.12636 -2.52935,1.85564 -3.40532,2.21739 -0.53174,0.21959 -3.31354,1.11145 -6.18179,1.9819 -2.86825,0.87046 -5.58596,1.77059 -6.03935,2.00029 l -0.82436,0.41765 0.36227,0.38254 c 1.30996,1.38326 11.04933,8.81534 12.16046,9.2796 1.08418,0.453 1.05486,0.47582 0.9777,-0.76107 -0.14613,-2.34221 0.47993,-4.8463 2.73081,-10.92259 1.66614,-4.49777 1.55642,-4.05429 1.11661,-4.51335 -0.20218,-0.21103 -0.32072,-0.38369 -0.26343,-0.38369 0.0573,0 1.00413,-0.22992 2.10409,-0.51093 1.09997,-0.28102 2.22649,-0.55176 2.50338,-0.60166 l 0.50343,-0.0907 -0.99076,1.88891 c -1.03293,1.9693 -3.86929,7.85111 -4.66718,9.6784 -0.48601,1.11303 -1.35608,3.57478 -1.35608,3.83685 0,0.11155 0.33819,0.088 1.22124,-0.085 0.67168,-0.1316 2.73622,-0.53619 4.58788,-0.89909 1.85165,-0.36289 5.76793,-1.16799 8.70284,-1.7891 2.93491,-0.62112 5.35407,-1.11143 5.37591,-1.08959 0.0401,0.0401 -0.58876,3.3733 -1.81851,9.63936 -0.36788,1.87452 -0.63897,3.43813 -0.60241,3.47469 0.0366,0.0366 1.39421,-0.35787 3.017,-0.87651 5.20008,-1.66192 8.66043,-2.35781 13.47998,-2.71089 0.93544,-0.0685 1.14373,-0.051 1.09317,0.0922 -0.0344,0.0973 -0.50665,2.04838 -1.04953,4.33576 -0.54287,2.2873 -1.42734,5.956 -1.96548,8.1525 -0.73137,2.9853 -0.93291,3.9938 -0.79816,3.9938 0.0991,0 0.80886,-0.1485 1.57715,-0.3301 1.92096,-0.4539 1.97633,-0.3979 0.18525,0.1872 -1.22376,0.3997 -2.14349,0.8027 -2.62105,1.1485 -0.0256,0.019 0.10194,0.358 0.28345,0.7545 0.28924,0.6318 0.44218,0.7863 1.23826,1.2513 1.43281,0.8368 6.84903,3.6349 9.77582,5.0503 l 2.66934,1.2909 0.40025,-0.739 c 0.22014,-0.4064 0.40232,-0.9215 0.40486,-1.1446 0.0123,-1.0795 1.05693,-5.2246 1.31675,-5.2246 0.0489,0 0.1648,0.3416 0.25757,0.7592 0.29458,1.3258 1.77846,5.182 1.99409,5.182 0.0571,0 1.45984,0.6455 3.11729,1.4345 3.60603,1.7165 5.18254,2.3241 7.06758,2.7239 l 1.41353,0.2998 0.33946,-1.0193 c 0.77831,-2.3371 0.89161,-5.6942 0.32548,-9.6441 -0.26751,-1.8664 -0.84711,-4.4106 -1.30405,-5.7241 -0.55441,-1.5936 -2.93134,-5.0862 -6.61735,-9.72323 -0.54821,-0.68965 -1.52182,-1.96684 -2.16359,-2.83821 -0.64177,-0.87137 -1.17976,-1.60044 -1.19553,-1.62017 -0.0158,-0.0197 -0.76509,0.0534 -1.66514,0.16245 -0.90005,0.10907 -3.74556,0.26056 -6.32336,0.33664 -2.57779,0.0761 -5.01366,0.1886 -5.41303,0.25004 -0.39938,0.0614 -0.74561,0.0948 -0.76941,0.074 -0.0238,-0.0207 0.37343,-1.51339 0.88273,-3.31705 1.66297,-5.88932 2.57406,-9.28365 2.50926,-9.34845 -0.035,-0.035 -2.73363,0.46738 -5.99699,1.11637 -6.59954,1.31246 -11.45527,2.22775 -11.52283,2.17203 -0.046,-0.0379 1.23128,-4.28528 3.30435,-10.9884 0.6578,-2.12696 1.17369,-3.88816 1.14644,-3.91378 -0.1138,-0.10696 -7.64077,0.19486 -9.69882,0.38891 -2.12597,0.20045 -4.73614,0.5189 -5.48501,0.66917 l -0.34743,0.0697 0.71272,-2.02044 c 1.81722,-5.15152 4.1366,-12.69683 3.95786,-12.87556 -0.0258,-0.0258 -1.10918,0.13139 -2.40742,0.34941 -1.29825,0.21801 -3.40014,0.54354 -4.67089,0.72338 -3.04716,0.43126 -12.5295,1.55838 -12.66873,1.50587 -0.06,-0.0226 0.12239,-0.81348 0.40528,-1.75746 1.44171,-4.8109 2.99598,-11.48989 2.73464,-11.75124 -0.0349,-0.0349 -0.97979,0.22773 -2.09967,0.58371 -2.77436,0.88189 -3.90426,1.21527 -6.52391,1.92489 -2.20224,0.59654 -5.80134,1.51916 -5.92622,1.51916 -0.0349,0 0.32042,-0.56217 0.78959,-1.24927 1.70653,-2.49926 2.3105,-4.28558 2.32287,-6.87028 0.0121,-2.5255 -0.63949,-5.16644 -2.07167,-8.3966 -0.32709,-0.73772 -0.5947,-1.35515 -0.5947,-1.37207 0,-0.0169 0.39355,-0.0711 0.87455,-0.12035 1.0367,-0.10622 2.01454,-0.32579 3.30405,-0.74192 l 0.94398,-0.30462 2.15861,1.84605 c 1.18724,1.01533 5.7233,4.8389 10.08013,8.49683 11.63561,9.76906 11.63103,9.76518 16.50316,13.98305 9.11177,7.88818 15.75574,14.12977 22.35616,21.00221 9.39356,9.7807 14.75012,16.67867 19.43117,25.02273 3.9297,7.0048 5.84849,13.0558 6.34632,20.0137 0.14116,1.9729 0.13443,2.2658 -0.0667,2.9045 -0.66921,2.1253 -2.4967,3.1705 -5.48596,3.1375 -0.76402,-0.01 -1.47824,-0.033 -1.58716,-0.054 z m -30.12221,-16.2406 c -0.29173,-1.5833 0.30844,-4.1937 2.12175,-9.2285 0.93523,-2.59667 1.50755,-4.43124 1.3824,-4.43124 -0.16162,0 -0.99658,0.49792 -1.92145,1.14584 -1.54008,1.0789 -2.24804,1.3748 -8.62561,3.6051 -4.12027,1.4409 -4.94598,1.7505 -5.59671,2.0988 l -0.44772,0.2397 0.8438,0.5953 c 1.36101,0.9601 6.01451,3.7706 11.2738,6.8088 0.88078,0.5088 0.92886,0.5214 1.02397,0.268 0.0549,-0.1463 0.0305,-0.6421 -0.0542,-1.1018 l 0,0 z m -15.16752,-13.07407 c 0.26121,-1.31318 0.64183,-2.6296 1.6753,-5.79414 0.54424,-1.66653 1.13047,-3.55667 1.30272,-4.20032 l 0.31318,-1.17027 -0.71624,0.40423 c -0.39393,0.22232 -1.16473,0.72602 -1.7129,1.11933 -2.62424,1.88292 -6.52191,3.40026 -11.6878,4.55001 -1.90308,0.42356 -2.2851,0.54726 -2.6992,0.87407 -0.25679,0.20265 -0.25442,0.21227 0.13202,0.53738 0.82157,0.69118 3.57005,2.6112 8.23636,5.75378 l 4.83156,3.2538 0.0846,-2.2721 c 0.0465,-1.2496 0.15471,-2.62473 0.24044,-3.05577 l 0,0 z m 25.80458,-4.35716 c 0.57463,-0.11488 1.55491,-0.43762 2.17842,-0.7172 1.5243,-0.6835 2.23313,-0.78848 6.08582,-0.90131 2.83767,-0.0831 3.32863,-0.12772 3.52087,-0.31996 0.19909,-0.19909 0.20278,-0.26331 0.034,-0.59036 -0.22089,-0.42792 -8.00845,-8.34412 -9.56322,-9.72118 l -1.0562,-0.93549 -0.0887,1.84422 c -0.11189,2.32623 -0.37662,3.6082 -1.66845,8.07956 -0.96093,3.326 -1.01798,3.59019 -0.76294,3.53272 0.15161,-0.0342 0.74581,-0.15612 1.32044,-0.271 l 0,0 z M 201.2525,982.68489 c 0.0466,-0.59906 0.0852,-1.71303 0.0858,-2.47547 0.002,-2.62086 0.37548,-4.03478 2.84341,-10.76006 1.42159,-3.87392 2.11818,-5.97512 2.01506,-6.07824 -0.0337,-0.0337 -0.52873,-0.0217 -1.10007,0.0265 -1.01163,0.0855 -1.07434,0.11179 -2.39663,1.00408 -1.72205,1.16206 -2.33931,1.4082 -7.20503,2.87314 -7.5804,2.28224 -7.52982,2.26245 -7.8813,3.08376 l -0.23237,0.54299 0.36423,0.5281 c 0.56197,0.81482 6.23816,6.14405 11.12175,10.44196 1.17783,1.03656 2.17725,1.88865 2.22095,1.89353 0.0437,0.005 0.11761,-0.48127 0.16424,-1.08034 l 0,0 z m 44.71092,-1.61787 c 0.47199,-0.16848 1.2214,-0.45916 1.66536,-0.64596 0.96616,-0.40654 2.19918,-0.60156 3.82582,-0.6051 1.88696,-0.004 4.77377,-0.16467 4.95305,-0.27547 0.12402,-0.0767 0.10465,-0.19008 -0.0811,-0.47503 -0.67162,-1.03026 -9.75646,-10.06875 -9.93796,-9.88725 -0.0371,0.0372 -0.1127,0.79659 -0.16788,1.68764 -0.0552,0.89105 -0.22687,2.22192 -0.38152,2.95749 -0.21675,1.03092 -1.50035,5.6751 -2.07002,7.48952 -0.0708,0.2254 -0.0197,0.23779 0.62953,0.15287 0.38861,-0.0508 1.09273,-0.23024 1.56472,-0.39871 l 0,0 z m -13.16958,-10.8793 c 2.73525,-1.25381 3.36035,-1.43423 7.36046,-2.12449 3.41582,-0.58943 4.35684,-0.79259 4.35684,-0.94061 0,-0.1089 -2.84954,-2.72749 -6.60127,-6.06626 -3.58058,-3.18646 -4.36292,-3.83927 -4.53352,-3.78289 -0.0943,0.0312 -0.16495,0.42783 -0.18345,1.03031 -0.10169,3.31135 -0.58814,5.55228 -2.75615,12.69687 -0.0386,0.12708 -0.0364,0.23105 0.005,0.23105 0.0412,0 1.09972,-0.46979 2.35235,-1.04398 l 0,0 z M 216.3794,957.44887 c 1.33749,-0.41898 1.24115,-0.40204 5.68744,-1.00035 4.02,-0.54095 7.37769,-1.10884 8.16247,-1.38054 l 0.44909,-0.15548 -5.5698,-4.67986 c -3.06339,-2.57392 -5.62481,-4.69966 -5.69204,-4.72387 -0.0674,-0.0243 -0.12225,0.3632 -0.12225,0.86344 0,1.76667 -0.61775,3.23398 -2.7677,6.57399 -1.58178,2.45734 -1.76747,2.79141 -2.29967,4.13727 -0.69336,1.75338 -0.66539,1.85341 0.33711,1.20546 0.44815,-0.28965 1.26505,-0.66768 1.81535,-0.84006 l 0,0 z m -12.45218,-9.8497 c 0.31914,-0.21784 0.84388,-0.576 1.16607,-0.7959 1.20384,-0.82164 2.52908,-1.22995 5.55336,-1.71099 2.87384,-0.45712 6.06695,-1.06477 6.17784,-1.17566 0.0938,-0.0938 -2.37927,-2.25913 -8.81834,-7.72104 l -2.11241,-1.79184 -0.0851,1.94383 c -0.11073,2.52999 -0.22698,3.08502 -1.77245,8.46264 -0.46695,1.62477 -0.84899,3.00608 -0.84899,3.06958 0,0.1863 0.12592,0.13854 0.73999,-0.28062 z"
       id="path5068"
       inkscape:connector-curvature="0" />
    <path
       style="fill:#ffffff;fill-opacity:1;stroke:#ffffff;stroke-width:0.40927836;stroke-miterlimit:4;stroke-opacity:1;stroke-dasharray:none"
       d="m 175.15386,955.16862 c -0.0484,-0.0484 -0.088,-0.43154 -0.088,-0.8514 0,-1.1747 -0.36263,-3.7281 -0.74784,-5.26577 -0.35939,-1.43459 -0.90568,-2.96734 -1.61842,-4.54087 -0.22675,-0.50059 -0.39607,-0.92571 -0.37627,-0.9447 0.10153,-0.0974 2.98813,1.85166 4.00968,2.70731 0.64642,0.54145 1.50208,1.25072 1.90146,1.57617 1.22214,0.99589 2.68277,2.42806 3.04373,2.98443 0.40018,0.61681 1.04905,1.20825 2.06729,1.88432 l 0.7291,0.4841 -2.75503,0.48129 c -3.7774,0.65989 -4.50808,0.86256 -4.92622,1.3664 -0.17094,0.20597 -1.06644,0.29175 -1.23946,0.11872 l 0,0 z"
       id="path5078"
       inkscape:connector-curvature="0" />
    <path
       style="fill:#ffffff;fill-opacity:1;stroke:#ffffff;stroke-width:0.40927836;stroke-miterlimit:4;stroke-opacity:1;stroke-dasharray:none"
       d="m 299.2558,986.00735 c -1.74307,-0.12596 -4.06236,-0.57589 -4.61326,-0.89495 -0.34455,-0.19955 -0.40101,-0.31439 -0.43402,-0.88286 -0.0498,-0.85801 0.50493,-3.022 1.09118,-4.25648 1.35975,-2.86325 3.96115,-5.38972 7.26436,-7.05514 2.94971,-1.4872 5.61277,-2.27401 8.44962,-2.49647 2.20253,-0.17272 5.17065,-0.0678 6.30957,0.22297 0.95941,0.24496 2.44861,0.76516 2.98591,1.04301 2.43365,1.25849 2.33574,4.01074 -0.2655,7.46284 -1.07967,1.43283 -2.41721,2.77674 -3.37054,3.38657 -1.82637,1.16832 -5.64381,2.6657 -8.03135,3.15027 -2.08269,0.42271 -6.08045,0.55911 -9.38597,0.32024 l 0,0 z m 6.29895,-2.10352 c 3.67753,-0.20394 4.8427,-0.50851 8.09943,-2.11713 1.99025,-0.98305 3.81852,-2.25704 4.58979,-3.19827 1.28579,-1.56914 3.13369,-4.79316 3.13369,-5.46733 0,-0.15227 -0.0848,-0.30939 -0.18844,-0.34916 -0.10365,-0.0398 -2.01967,-0.11218 -4.25782,-0.16091 -5.16785,-0.1125 -8.05296,0.051 -9.50568,0.53865 -1.53722,0.51603 -1.59677,0.61498 -0.30679,0.50973 2.6642,-0.21736 6.31354,-0.0422 7.68554,0.36883 0.6164,0.18468 0.71112,0.46195 0.43836,1.28316 -0.44594,1.34261 -2.03784,3.22311 -3.63635,4.29559 -2.43014,1.63045 -4.71995,2.17994 -9.13623,2.19245 -2.20648,0.006 -5.32394,0.18282 -5.6689,0.32109 -0.26147,0.1048 -0.40188,0.98077 -0.19849,1.23824 0.0777,0.0983 0.29221,0.24117 0.47673,0.31741 0.80018,0.33065 4.71964,0.43593 8.47516,0.22765 l 0,0 z"
       id="path5080"
       inkscape:connector-curvature="0" />
    <path
       style="fill:#ffffff;fill-opacity:1;stroke:#ffffff;stroke-width:0.578807;stroke-miterlimit:4;stroke-opacity:1;stroke-dasharray:none"
       d="m 216.83672,915.12632 c -1.64019,-6.22485 -3.26009,-10.13495 -5.34506,-12.90192 -1.3944,-1.8505 -2.80462,-3.03783 -4.65897,-3.92257 -2.58594,-1.23379 -5.74996,-1.00338 -8.70148,0.63368 -4.36808,2.42274 -8.30903,6.87773 -10.18723,11.516 l -0.55139,1.36166 0.11208,-1.30698 c 0.33466,-3.90244 1.96386,-7.03256 5.35216,-10.28285 1.87571,-1.79931 3.06919,-2.66236 6.95848,-5.03191 l 2.97822,-1.81449 1.12944,0.0942 c 2.22262,0.18546 4.49457,1.23161 7.02003,3.23249 3.20573,2.53983 5.8842,6.86816 7.7438,12.51374 0.43582,1.32312 2.5162,8.43087 2.5162,8.59676 0,0.0369 -0.8192,0.0667 -1.82044,0.0661 l -1.82044,-9.4e-4 -0.7254,-2.753 0,-6e-5 z"
       id="path5082"
       inkscape:connector-curvature="0" />
    <path
       style="fill:#ffffff;fill-opacity:1;stroke:#ffffff;stroke-width:0.578807;stroke-miterlimit:4;stroke-opacity:1;stroke-dasharray:none"
       d="m 191.41216,920.10961 c -0.91857,-1.34172 -1.7854,-2.60203 -1.92629,-2.80068 -0.22356,-0.31521 -0.21644,-0.36118 0.0559,-0.36118 0.47182,0 1.35108,0.50441 2.17185,1.24592 0.77366,0.69896 0.92211,1.26132 0.508,1.92441 -0.19391,0.3105 -0.15593,0.44169 0.25602,0.88435 0.39964,0.42943 0.88009,1.54668 0.66512,1.54668 -0.0333,0 -0.81208,-1.09777 -1.73065,-2.4395 z"
       id="path5084"
       inkscape:connector-curvature="0" />
    <path
       style="fill:#ffffff;fill-opacity:1;stroke:#ffffff;stroke-width:0.578807;stroke-miterlimit:4;stroke-opacity:1;stroke-dasharray:none"
       d="m 192.42731,953.02436 c 0.31651,-0.59141 0.27547,-0.67684 -0.64157,-1.33541 -0.72987,-0.52415 -0.94811,-0.59255 -1.54038,-0.48276 -0.37952,0.0704 -0.96342,0.29595 -1.29756,0.50133 l -0.60753,0.37342 -1.25959,-0.70379 c -3.24116,-1.81098 -6.66345,-4.29631 -8.448,-6.1351 -0.6675,-0.68779 -1.59172,-1.44988 -2.05383,-1.69355 -0.89101,-0.46982 -0.92161,-0.49552 -7.68105,-6.45196 -7.29659,-6.42978 -11.42402,-9.46307 -15.09781,-11.09555 -11.08972,-4.92779 -22.98454,-14.25759 -32.84768,-25.76436 -1.58423,-1.84822 -2.90219,-3.39005 -2.92879,-3.42628 -0.0266,-0.0362 -0.83093,0.35355 -1.78738,0.86617 -3.61552,1.93777 -7.30687,3.08404 -11.91482,3.6999 -4.95116,0.66174 -24.12277,0.38416 -26.79835,-0.388 -0.87364,-0.25212 -1.84869,-1.00762 -1.98852,-1.54075 -0.0331,-0.12607 0.31138,-0.47792 0.76544,-0.78188 0.82081,-0.54948 0.82814,-0.55062 1.2758,-0.19849 1.99295,1.56766 7.98038,2.33241 14.71144,1.87904 7.27907,-0.49028 13.74086,-1.79061 20.52797,-4.1309 3.56995,-1.23097 4.57961,-1.87714 4.94976,-3.16777 0.30562,-1.06565 -0.041,-2.09166 -1.44182,-4.26812 -0.55286,-0.85896 -0.97354,-1.59341 -0.93484,-1.63211 0.0387,-0.0387 0.74643,0.83213 1.57272,1.93517 4.99529,6.66835 11.71595,14.26598 17.17903,19.4207 5.47861,5.16937 7.97583,6.86124 17.41949,11.80174 4.34771,2.27452 7.42621,4.16512 10.9028,6.69575 2.0962,1.52582 3.71448,2.85134 14.86345,12.17449 2.51595,2.10392 5.83475,4.8361 7.37512,6.07152 6.06904,4.86751 6.83669,5.34138 8.68101,5.35875 1.38695,0.0131 2.43055,-0.65166 3.30242,-2.10349 2.37261,-3.95085 2.293,-8.75314 -0.22642,-13.65953 l -0.44663,-0.86977 0.69302,-0.27775 c 0.38116,-0.15277 0.7502,-0.24314 0.82008,-0.20083 0.28126,0.17029 2.07072,4.1756 2.45081,5.48557 0.58367,2.01166 0.57043,5.6387 -0.0282,7.74199 -0.53929,1.89461 -1.36978,3.45002 -2.50574,4.69294 -1.13591,1.24287 -2.16476,1.74339 -3.87906,1.88711 -1.31954,0.11063 -1.33978,0.10568 -1.13474,-0.27744 l 0,0 z"
       id="path5086"
       inkscape:connector-curvature="0" />
    <path
       style="fill:#ffffff;fill-opacity:1;stroke:#ffffff;stroke-width:0.81855673;stroke-miterlimit:4;stroke-opacity:1;stroke-dasharray:none"
       d="m 188.90031,923.54275 c -5.29145,-7.27964 -7.01312,-10.15395 -9.50986,-15.87662 -1.8545,-4.25062 -3.08963,-6.41712 -6.24727,-10.9581 -4.72056,-6.78861 -4.79677,-7.30561 -1.59731,-10.83609 0.8977,-0.99058 1.85935,-2.24632 2.13699,-2.79055 1.06037,-2.07849 1.77638,-5.75782 2.24034,-11.5123 0.15881,-1.96973 0.12157,-2.24113 -0.4099,-2.98751 -0.57039,-0.80104 -0.57435,-0.85739 -0.16323,-2.32231 1.24924,-4.45143 2.25357,-6.90482 3.91143,-9.5549 3.61699,-5.78174 3.5168,-5.1574 3.5168,-21.91619 0,-14.33847 0.2224,-13.02957 0.52651,3.0987 l 0.19534,10.3601 0.95933,0.26646 c 0.52763,0.14656 1.13756,0.26895 1.3554,0.27199 0.21785,0.003 0.55733,0.10769 0.75441,0.23256 0.40046,0.25374 -0.5145,2.08858 -6.1086,12.25007 l -3.16655,5.75191 0.17844,1.7416 c 0.37858,3.69523 2.25805,5.62067 8.26322,8.46535 4.72616,2.2388 8.48892,2.88752 18.82667,3.24583 9.6736,0.3353 13.04807,0.52967 13.44403,0.77439 0.21822,0.13486 -0.18997,0.49566 -1.21035,1.06982 -0.8468,0.47648 -4.38412,2.6444 -7.86072,4.81759 -3.47661,2.1732 -6.50659,4.01791 -6.73329,4.09936 -0.22671,0.0815 -2.1249,1.2188 -4.2182,2.52742 -4.21065,2.63229 -6.57957,3.5909 -10.58475,4.28323 -2.98055,0.51522 -5.39884,0.37242 -9.18208,-0.54219 -1.41136,-0.3412 -2.60868,-0.5778 -2.6607,-0.52577 -0.052,0.052 0.64468,1.11211 1.54823,2.35574 1.19964,1.65114 1.90876,2.99124 2.62856,4.96741 1.7738,4.86991 4.15587,9.05407 9.13215,16.04081 4.00599,5.62445 3.78964,5.21903 3.44182,6.44956 l -0.29298,1.03652 -3.11388,-4.28389 z m -0.36884,-29.06484 c 2.72871,-0.69789 5.63361,-1.8907 8.49363,-3.48766 2.72763,-1.52304 13.11697,-7.93491 13.01672,-8.03337 -0.0365,-0.0358 -3.27452,-0.25831 -7.19567,-0.49441 -10.40039,-0.62625 -14.40659,-1.40416 -18.67935,-3.62709 -1.69511,-0.88189 -2.52028,-1.55956 -4.55412,-3.74002 -1.68877,-1.81051 -2.52662,-2.5389 -2.61735,-2.2754 -0.0734,0.21316 -0.61267,2.28874 -1.19838,4.61238 -0.75985,3.01452 -1.41556,4.93013 -2.28892,6.68688 -1.41767,2.85165 -1.4539,3.85259 -0.19746,5.45548 1.44362,1.84169 5.03369,4.21365 7.61006,5.028 1.66143,0.52515 5.30308,0.46544 7.61084,-0.12479 z"
       id="path5088"
       inkscape:connector-curvature="0" />
    <path
       style="fill:#ffffff;fill-opacity:1;stroke:#ffffff;stroke-width:0.81855673;stroke-miterlimit:4;stroke-opacity:1;stroke-dasharray:none"
       d="m 160.53341,816.52823 -1.08988,-1.39872 0.96041,-1.82767 c 0.52823,-1.00522 1.00435,-1.69588 1.05804,-1.53479 0.0537,0.16108 -0.0127,0.49003 -0.14755,0.73099 -0.26006,0.4647 0.54159,2.99521 1.04802,3.3082 0.16473,0.10181 0.0751,0.53361 -0.23715,1.1422 l -0.50201,0.97851 -1.08988,-1.39872 z"
       id="path5090"
       inkscape:connector-curvature="0" />
    <path
       style="fill:#ffffff;fill-opacity:1;stroke:#ffffff;stroke-width:0.81855673;stroke-miterlimit:4;stroke-opacity:1;stroke-dasharray:none"
       d="m 190.98706,953.15415 c -3.95476,-1.17394 -8.24179,-3.81008 -12.42646,-7.64114 -0.80761,-0.73936 -2.19437,-1.87899 -3.0817,-2.53252 -0.88733,-0.65352 -3.91007,-3.19349 -6.7172,-5.64437 -7.78504,-6.79705 -10.653,-8.84281 -16.9128,-12.06415 -12.42142,-6.39216 -22.79941,-14.92425 -32.92555,-27.0692 l -0.89827,-1.07736 -3.0969,1.40008 c -6.45351,2.91757 -9.3924,3.36733 -21.90388,3.35208 -13.04668,-0.0159 -16.61323,-0.41614 -17.43783,-1.95693 -0.36345,-0.67911 -0.0216,-1.13884 1.37776,-1.85273 1.27367,-0.64978 3.59074,-2.64759 8.27058,-7.13101 4.2018,-4.02545 6.09799,-5.66236 7.75743,-6.69665 0.63589,-0.39634 1.43943,-1.03625 1.78564,-1.42202 0.61455,-0.68474 2.47123,-4.21334 2.47123,-4.69653 0,-0.13852 -1.16373,-0.20106 -2.70652,-0.14545 -2.82176,0.10172 -3.04595,0.0608 -9.04373,-1.64928 -1.30705,-0.37267 -2.46264,-0.67798 -2.56798,-0.67848 -0.10534,-5.2e-4 -0.91085,1.44537 -1.79002,3.21303 -3.96123,7.9644 -9.43906,14.21995 -17.59657,20.09486 -4.38022,3.15455 -6.66083,3.98647 -10.91973,3.98327 -3.18149,-0.002 -4.74801,-0.47386 -7.15674,-2.15394 -1.15363,-0.80466 -1.84221,-1.64579 -3.61697,-4.41833 -11.18176,-17.46822 -20.520418,-40.3473 -26.976908,-66.09161 -2.05287,-8.18549 -4.45472,-21.81505 -5.1729605,-29.35448 -1.16892,-12.27022 0.6396205,-23.48923 4.8223405,-29.91474 1.64188,-2.52226 6.26579,-7.08314 9.05838,-8.93491 6.526308,-4.32759 14.496478,-7.11448 24.421978,-8.53952 8.99712,-1.29174 15.07374,-1.43439 21.52012,-0.50517 3.82235,0.55097 5.40493,0.95404 11.4862,2.92543 5.7872,1.87605 7.5144,2.60536 9.18863,3.87991 0.61014,0.46448 1.26113,0.93743 1.44665,1.051 0.22074,0.13513 1.08759,-0.45163 2.50848,-1.69795 4.62496,-4.05674 9.33842,-6.57768 14.60742,-7.8126 1.69501,-0.39727 3.05269,-0.48191 7.23552,-0.45106 7.45904,0.055 16.14821,1.21238 22.53995,3.00224 l 2.60414,0.72923 0.9654,-0.96054 c 1.80929,-1.80019 6.17345,-3.52323 11.13177,-4.39499 1.18271,-0.20794 5.31806,-0.63264 9.18967,-0.94378 8.24261,-0.66241 16.42764,-0.59685 19.84576,0.15897 12.21864,2.70178 21.96197,11.77875 25.14903,23.42904 0.54247,1.98299 0.59291,2.71102 0.56251,8.11945 -0.0993,17.66877 -5.83541,37.60873 -18.30611,63.63618 -1.42647,2.97717 -2.81035,5.94774 -3.07529,6.60127 -0.26493,0.65352 -2.35759,4.65741 -4.65035,8.89753 -4.54687,8.40876 -4.55576,8.43529 -3.74771,11.1884 0.55053,1.87571 2.37109,3.67106 5.39086,5.31618 6.21831,3.38764 8.85902,3.88601 24.20449,4.56804 11.179,0.49684 11.71419,0.58421 10.18851,1.66314 -0.95076,0.67236 -16.2509,10.0221 -20.00493,12.22478 -5.79365,3.39943 -8.58069,4.27304 -13.73063,4.30393 -2.48154,0.0149 -4.00364,-0.11476 -5.49337,-0.46788 -1.13339,-0.26865 -2.103,-0.44539 -2.15468,-0.39275 -0.0517,0.0526 0.48308,1.03017 1.18837,2.1723 0.70529,1.14212 1.83708,3.39975 2.51509,5.01696 1.59039,3.79344 2.4856,5.56773 4.27584,8.47466 1.27743,2.07425 4.85677,7.3508 6.94085,10.23197 0.38965,0.53869 0.86562,1.37045 1.0577,1.84835 0.19208,0.47791 1.23807,2.23538 2.32443,3.9055 1.08636,1.67012 2.35778,3.6307 2.82537,4.35684 1.92888,2.9954 2.78521,5.82489 2.77904,9.18253 -0.0138,7.494 -4.12529,11.9679 -9.52535,10.36492 l 0,0 z m 2.83561,-10.57261 c 0.25976,-3.14453 -1.51186,-6.67739 -7.2813,-14.5199 -6.16176,-8.3758 -8.61662,-12.39101 -11.21994,-18.35152 -1.98676,-4.54884 -2.86552,-6.07616 -6.22845,-10.8253 -3.5472,-5.00936 -4.6863,-7.76018 -4.26467,-10.29874 0.30518,-1.83741 0.86385,-2.86957 2.72773,-5.03959 2.04244,-2.37789 2.45175,-3.11509 2.9504,-5.31395 0.46441,-2.04781 0.99607,-7.29897 0.77519,-7.65637 -0.0892,-0.14427 -1.17832,-1.70603 -2.42033,-3.47057 -5.88779,-8.36481 -10.23833,-16.86138 -13.13498,-25.65255 -2.24321,-6.80799 -2.3688,-7.64002 -2.35155,-15.57898 0.0136,-6.23919 0.0681,-7.05797 0.59786,-8.97772 1.1073,-4.01256 3.74989,-8.55615 6.34434,-10.90824 3.4924,-3.16618 8.28066,-5.71147 12.53608,-6.66379 0.82435,-0.18448 1.49882,-0.36128 1.49882,-0.39288 0,-0.0316 -0.53359,-1.61526 -1.18576,-3.51925 -3.22892,-9.42678 -7.63084,-16.62296 -13.7566,-22.48902 -10.32384,-9.88616 -25.80176,-15.28926 -43.83886,-15.30345 -4.44451,-0.004 -5.77167,0.25635 -8.71879,1.70705 -7.76244,3.82101 -15.99572,13.59386 -22.68565,26.92771 -2.0307,4.04743 -4.32894,9.69896 -6.4336,15.82066 -1.29466,3.76572 -1.32546,3.91966 -0.75258,3.76212 3.7634,-1.03491 11.70282,-2.22241 16.35471,-2.44618 12.85394,-0.6183 21.32449,4.93358 23.18552,15.19656 0.42496,2.34351 0.36517,8.00108 -0.11885,11.24719 -0.73897,4.95584 -3.00804,14.42099 -5.0324,20.99202 -4.40198,14.28873 -6.23529,20.41471 -6.27841,20.97929 -0.0472,0.61773 0.15083,0.76449 2.13563,1.58282 1.2032,0.49607 3.19232,1.57045 4.42026,2.3875 2.33222,1.5518 3.43343,2.79394 7.25966,8.18873 5.59743,7.8921 14.71882,18.15343 20.83337,23.43697 3.44544,2.9772 5.54526,4.32697 12.82818,8.246 9.68809,5.21329 11.6274,6.59584 25.74493,18.35377 5.15559,4.29389 10.56202,8.72491 12.0143,9.84672 l 2.64051,2.03965 0.36206,-0.85979 c 0.19913,-0.47288 0.42105,-1.57402 0.49317,-2.44697 l 0,0 z M 97.24911,895.29726 c 3.47638,-0.44974 8.35539,-1.59118 12.47827,-2.9193 3.30224,-1.06376 3.25332,-0.67711 0.54021,-4.26986 -2.24717,-2.97575 -3.09629,-3.87341 -4.69005,-4.95817 l -1.30942,-0.89122 -0.63503,1.33611 c -1.40361,2.95324 -6.99129,7.31407 -13.7774,10.75239 l -3.30063,1.67234 3.82873,-0.16473 c 2.10581,-0.0906 5.1952,-0.3415 6.86532,-0.55756 z m -40.9762,-0.78015 c 1.7501,-0.51972 4.82483,-2.6139 7.95556,-5.41848 3.95616,-3.54403 7.47706,-7.80462 10.87629,-13.16127 l 1.40797,-2.21872 -1.052,-0.81299 c -4.32622,-3.34332 -8.19397,-9.33915 -10.51396,-16.29887 -0.97398,-2.92183 -1.78928,-6.70888 -2.32441,-10.79689 -0.47474,-3.62668 -0.39854,-14.55209 0.13536,-19.40772 2.31504,-21.0542 9.90485,-41.93173 21.1862,-58.27748 1.07306,-1.55478 1.95101,-2.93504 1.95101,-3.06724 0,-0.52665 -6.68256,-3.1113 -10.97215,-4.24375 -7.34143,-1.93814 -16.22596,-2.12306 -25.73087,-0.53555 -14.10444,2.35572 -24.721288,8.02842 -28.454088,15.20333 -2.21692,4.26121 -2.96739,8.36128 -2.96487,16.19804 0.006,17.89137 4.03469,37.163 12.944948,61.91986 7.26694,20.19094 17.66659,40.46079 21.24654,41.41142 0.74969,0.19908 2.74593,-0.0297 4.30847,-0.49369 l 0,0 z m 133.12985,-5.01033 c 1.0892,-0.39781 2.93096,-1.20454 4.09278,-1.79274 l 2.1124,-1.06943 -2.90455,-0.48367 c -4.97114,-0.82779 -9.94915,-2.51759 -12.2563,-4.16042 -0.42004,-0.2991 -0.81567,-0.54381 -0.87918,-0.54381 -0.0635,0 -0.25748,0.47395 -0.43104,1.05322 -0.17355,0.57928 -0.66953,1.84218 -1.10217,2.80646 -0.57562,1.28294 -0.71114,1.84419 -0.50522,2.0923 0.50917,0.61352 3.0655,2.26288 4.11276,2.65359 1.61427,0.60225 5.31615,0.33727 7.76052,-0.5555 l 0,0 z M 95.89381,868.68331 c 1.32743,-3.54786 6.77673,-21.3962 8.83773,-28.94659 1.38222,-5.06368 1.92814,-7.77866 2.15249,-10.70477 0.0886,-1.15592 0.22226,-2.49972 0.29698,-2.98621 l 0.13584,-0.88453 -0.74305,0.71308 c -1.08271,1.03904 -3.57145,2.15904 -5.60519,2.52249 -1.6257,0.29053 -1.99191,0.26186 -4.40245,-0.3447 -1.44609,-0.36387 -3.45458,-1.06219 -4.46331,-1.55182 -2.07147,-1.00548 -4.5234,-3.23076 -5.3458,-4.85166 -1.23666,-2.43739 -1.3847,-5.3319 -0.37407,-7.31418 l 0.46592,-0.91388 -2.52759,0.46226 c -2.71396,0.49636 -5.87215,1.25247 -8.88433,2.12703 l -1.87632,0.54478 -0.43038,2.4153 c -1.07817,6.05076 -1.32961,9.40344 -1.33957,17.86226 -0.0135,11.43033 0.57772,14.48195 4.23913,21.88229 2.67051,5.39755 4.75704,7.21573 10.48888,9.13985 2.25595,0.75729 7.69566,2.20133 8.40097,2.23013 0.30065,0.0123 0.61385,-0.43822 0.97412,-1.40113 l 0,0 z m 81.25202,-17.19634 c 0.4186,-0.73498 0.6875,-1.836 0.88417,-3.62029 0.30838,-2.79768 0.38693,-18.9898 0.11099,-22.87734 l -0.17165,-2.41815 -0.88603,0.67582 c -1.16167,0.88604 -3.95058,2.1816 -5.69716,2.64655 -2.53119,0.67381 -5.96376,0.44465 -8.49722,-0.56729 -0.48236,-0.19266 -0.49739,-0.0908 -0.3375,2.28548 0.58162,8.64357 4.20804,18.59882 10.41074,28.57958 l 0.62622,1.00765 1.47795,-2.3279 c 0.81287,-1.28035 1.74864,-2.8032 2.07949,-3.38411 z m 12.92939,-18.36034 c 5.4703,-12.80273 10.62632,-29.87783 11.43902,-37.88243 0.45262,-4.45796 0.59559,-11.39986 0.32902,-15.97506 -0.21623,-3.71112 -0.3722,-4.71607 -1.05234,-6.78078 -1.43301,-4.35021 -3.3789,-7.58295 -6.29663,-10.46073 -2.93777,-2.89754 -5.74239,-4.5457 -10.1085,-5.94037 -5.88581,-1.88011 -14.76075,-2.07838 -25.19756,-0.56292 -5.03471,0.73106 -6.45718,1.05091 -5.9604,1.34023 5.99429,3.49105 9.18166,5.77846 12.60104,9.04314 7.67068,7.32363 13.94189,17.97512 17.19455,29.20447 2.89221,9.98495 4.23022,20.40687 4.69073,36.5366 0.12102,4.23873 0.26271,6.15493 0.43265,5.85127 0.13898,-0.24835 1.00677,-2.21639 1.92842,-4.37342 z m -87.95021,-10.02122 c 0.58999,-0.2529 1.23283,-0.65275 1.42853,-0.88854 1.27778,-1.53964 -2.6424,-4.66117 -5.85225,-4.65999 -2.16923,8e-4 -3.90541,1.47011 -3.52555,2.98362 0.68052,2.71139 4.63265,3.98658 7.94927,2.56491 z m -9.63327,-2.13183 c -0.77281,-2.69462 1.48833,-4.99527 4.91407,-4.99993 2.25819,-0.003 6.42609,2.12506 6.86399,3.50476 0.0863,0.27188 0.21422,0.437 0.28428,0.36693 0.22724,-0.22724 -0.63612,-1.60745 -1.53934,-2.46087 -2.29353,-2.16705 -5.09744,-3.30725 -8.13304,-3.30725 -3.84172,0 -5.85034,2.06887 -4.76926,4.91232 0.2541,0.66833 2.37846,3.14911 2.54988,2.97769 0.0489,-0.0489 -0.0279,-0.49604 -0.17058,-0.99365 z m 71.37437,-0.48176 c -0.40399,-3.01198 2.67865,-5.7843 6.72562,-6.04856 3.549,-0.23174 5.48244,1.09025 5.30327,3.62611 -0.10527,1.48989 0.0714,1.45842 1.12319,-0.20005 1.46953,-2.3172 0.88925,-4.55547 -1.45734,-5.62123 -1.3711,-0.62272 -4.52731,-0.66127 -6.50808,-0.0795 -2.62445,0.77085 -4.93486,2.45832 -6.06598,4.43046 -1.01939,1.77732 -1.00965,2.79128 0.0383,3.98479 0.45073,0.51335 0.8553,0.93336 0.89905,0.93336 0.0437,0 0.0177,-0.46143 -0.058,-1.02541 z m 8.52099,-0.0662 c 2.09626,-1.06083 2.75097,-1.90207 2.35213,-3.02228 -0.56054,-1.57437 -2.96521,-2.35204 -5.31576,-1.7191 -2.5402,0.684 -4.85641,3.1011 -4.46522,4.65971 0.2353,0.93755 1.01773,1.1835 3.46809,1.09019 1.81745,-0.0692 2.39549,-0.21639 3.96076,-1.00852 z m 4.34123,-12.11095 c 0,-0.14523 -0.20794,-0.26224 -0.46209,-0.26001 -0.3949,0.003 -0.4045,0.0413 -0.066,0.26001 0.49832,0.32203 0.5281,0.32203 0.5281,0 z"
       id="path5092"
       inkscape:connector-curvature="0" />
  </g>
</svg>
