<?xml version="1.0" encoding="UTF-8" standalone="no"?>
<!-- Created with Inkscape (http://www.inkscape.org/) -->
<svg id="svg2" xmlns:rdf="http://www.w3.org/1999/02/22-rdf-syntax-ns#" xmlns="http://www.w3.org/2000/svg" height="312.41" width="345.05" version="1.1" xmlns:cc="http://creativecommons.org/ns#" xmlns:dc="http://purl.org/dc/elements/1.1/">
 <metadata id="metadata7">
  <rdf:RDF>
   <cc:Work rdf:about="">
    <dc:format>image/svg+xml</dc:format>
    <dc:type rdf:resource="http://purl.org/dc/dcmitype/StillImage"/>
    <dc:title/>
   </cc:Work>
  </rdf:RDF>
 </metadata>
 <g id="layer1" stroke-miterlimit="4" transform="translate(0,-739.9513)">
  <path id="path4173" stroke-linejoin="miter" d="m193.28,919.04,1.482,1.4239c-0.26998-0.68419-0.73398-1.2057-1.482-1.4239zm1.511,1.482c0.74652,2.0144-0.19359,5.5525-1.1042,8.5142l2.0922,2.935c2.4373-1.2186,6.1927-0.69286,9.0373-1.8307l-10.025-9.6185z" stroke="#FFF" stroke-linecap="butt" stroke-dasharray="none" stroke-width="3.99999952" fill="none"/>
  <path id="path4429" d="m203.35,897.73c-0.2591-0.002-0.51971,0.008-0.78125,0.0312-5.4765,0.49659-12.327,6.8149-14.625,13.5-1.103,3.2089-0.50663,4.973,1.8125,5.4062,1.1048,0.20639,1.474,0.50609,5.4062,4.4375,4.8677,4.8667,9.3032,8.7662,23.438,20.562,19.292,16.1,26.127,22.162,35.75,31.781,10.731,10.726,17.201,18.717,22.188,27.375,4.4314,7.6944,6.6082,14.3,7,21.375,0.13696,2.4734,0.10056,2.727-0.46875,3.7813-1.4921,2.7631-5.357,3.2407-11.688,1.4062-11.379-3.2975-33.858-15.698-53.156-29.281-13.287-9.3527-23.001-17.318-31.094-25.562-4.4384-4.5218-6.6385-7.1627-9.0938-10.812-1.4394-2.1396-3.1407-5.1671-2.9688-5.3125,0.0438-0.0371,0.42706-0.24764,0.84375-0.46875l0.75-0.40625h-0.90625-0.90625l-0.15625-2.3438c-0.34477-5.0819-2.3984-10.033-5.8438-14.156-1.5537-1.8594-1.8527-1.959-2.8438-0.8125-1.7578,2.0335-3.2848,7.6545-3,11,0.69079,8.1149,0.87115,18.585,12.344,30.406,17.782,18.962,45.316,38.423,68.281,55.125,14.825,10.316,41.902,11.9,75.656,4.7188,5.9716-1.0339,11.515-2.8375,13.688-4.4688,0.44609-0.3349,0.38374-0.3844-0.65625-1-1.8709-1.1073-3.9129-3.1465-5.3438-5.3125-2.2167-3.3556-3.1002-5.7041-5.3438-14.188-0.66118-2.5001-1.5316-5.3402-1.9375-6.3125-1.4113-3.3809-1.1078-4.1753-1.25-6.4419-0.23753-3.7853,0.46852-6.5199,4.1875-16.344,2.2075-5.8313,3.7517-11.415,3.7902-12.982-4.3157-6.9467-12.659-3.9942-16.763-6.4107-0.9943-0.63067-3.3518,0.86087-4.0893,0.95982-1.3263,0.17789-3.7151,1.3582-7.1875,3.5938-11.354,7.3097-13.618,8.4043-18.031,8.625-3.6131,0.18068-4.5505-0.24649-8.5312-3.9375-5.5861-5.1795-9.7913-8.708-21.156-17.812-15.916-12.751-24.613-20.409-27.312-24-2.3895-3.1788-3.7678-6.7655-6.1562-15.906-1.8579-7.1103-2.4817-8.9548-3.9062-11.875-2.4678-5.0587-6.051-7.9148-9.9375-7.9375zm111.34,72.312c3.1952-0.00006,4.3484,0.92914,5.3036,1.1473,5.8704,2.426-0.44253,9.7652-2.9598,11.509-1.8992,1.2642-5.5129,2.7107-8.1875,3.2812-2.9496,0.62924-8.8525,0.65005-12.125,0.0312-3.0446-0.5757-3.1984-0.77509-2.6562-3.375,1.1616-5.5713,5.9205-9.8703,13.219-11.906,2.2964-0.64056,2.8181-0.68741,7.4062-0.6875z" stroke="#FFF" stroke-dasharray="none" stroke-width="0.69999999" fill="#336791"/>
  <path id="path4449" d="m257.5,1019c-3.3806-1.6844-7.9159-4.0558-8.4674-4.4275-0.32561-0.2195-0.31772-0.2401,0.16142-0.4223,0.27706-0.1053,2.5606-0.7971,5.0745-1.5372,6.9117-2.035,7.4583-2.2547,9.1435-3.6757,0.48161-0.4061,0.91874-0.6953,0.9714-0.6426,0.0527,0.053-0.41921,1.4518-1.0486,3.1091-1.6499,4.3445-2.442,7.1203-2.442,8.5579,0,0.3389-0.0603,0.6115-0.13393,0.6058-0.0737-0.01-1.5402-0.7112-3.2589-1.5675z" stroke="#FFF" stroke-dasharray="none" stroke-width="2.5" fill="#336791"/>
  <path id="path4451" d="m242.95,1011.2c-4.7465-2.775-9.4415-5.6709-9.5056-5.8633-0.0346-0.1038,2.1084-0.919,4.8082-1.829,6.7669-2.2811,8.2831-2.9111,9.5991-3.9889,0.59986-0.49126,1.1409-0.84294,1.2023-0.78152,0.0614,0.0614-0.35753,1.3382-0.931,2.8372-2.1122,5.5213-2.8996,8.8719-2.4663,10.495,0.10458,0.3918,0.14103,0.7087,0.081,0.7042-0.06,0-1.3145-0.7128-2.7877-1.574z" stroke="#FFF" stroke-dasharray="none" stroke-width="0.69999999" fill="#336791"/>
  <path id="path4453" d="m226.23,1000.7c-5.4519-3.6562-8.4297-5.7419-8.5003-5.9539-0.0349-0.10456,0.80703-0.35358,1.9538-0.57791,5.0403-0.98596,9.9125-2.8707,12.352-4.7782,0.67654-0.52894,1.2675-0.92432,1.3132-0.87861,0.0457,0.0457-0.44457,1.635-1.0895,3.5318-1.8053,5.3097-2.1611,6.8229-2.1649,9.2075-0.002,1.1048-0.0131,2.0088-0.0253,2.0089-0.0121,0.0001-1.7398-1.1518-3.8393-2.5597z" stroke="#FFF" stroke-dasharray="none" stroke-width="1" fill="#336791"/>
  <path id="path4455" d="m210.84,989.82c-4.2291-3.1864-7.9788-6.1731-7.9788-6.3553,0-0.15627,1.8118-0.74423,7.2095-2.3396,5.0764-1.5004,5.7661-1.7757,7.1655-2.8606,1.4982-1.1615,1.583-1.2024,1.4277-0.68954-0.0707,0.23328-0.67468,1.8331-1.3423,3.5551-2.0446,5.2737-2.9333,8.6671-2.7199,10.385,0.045,0.36261,0.0494,0.75659,0.01,0.87551-0.0417,0.12514-1.6302-0.95777-3.7715-2.5711z" stroke="#FFF" stroke-dasharray="none" stroke-width="1.39999998" fill="#336791"/>
  <path id="path4457" d="m197.67,979.21c-2.238-1.9573-8.083-7.4159-8.7853-8.2044-0.30687-0.34452-0.26793-0.36507,2.0536-1.0839,1.3015-0.40301,3.853-1.173,5.6699-1.7111,4.5193-1.3384,5.1704-1.6054,6.6524-2.7282,0.7087-0.53691,1.3138-0.90058,1.3446-0.80815,0.0308,0.0924-0.56176,1.7635-1.3168,3.7135-2.3753,6.1345-3.178,8.9924-3.1901,11.358-0.004,0.85931-0.0127,1.5624-0.0186,1.5625-0.006,0.00006-1.0902-0.94408-2.4097-2.0981z" stroke="#FFF" stroke-dasharray="none" stroke-width="2.5" fill="#336791"/>
  <path id="path4459" d="m184.91,966.72c-1.6815-1.8976-3.1377-3.744-4.4092-5.5908-1.1178-1.6236-2.9955-4.7663-2.9955-5.0136,0-0.23839,2.1451-0.70303,5.6616-1.2264,3.9264-0.58433,5.1626-0.93202,6.3528-1.7868,0.48974-0.35171,0.88883-0.51577,1.078-0.44316,0.16523,0.0634,0.30042,0.16785,0.30042,0.23211,0,0.0643-0.56637,1.4418-1.2586,3.0612-1.3818,3.2326-2.861,7.2517-3.1954,8.682-0.11781,0.50388-0.26877,1.4528-0.33545,2.1087l-0.12124,1.1925-1.0774-1.2158z" stroke="#FFF" stroke-dasharray="none" stroke-width="3.0999999" fill="#336791"/>
  <path id="path4461" d="m203.13,948.06c-0.0906,0.0965,0.43389-1.686,0.96421-3.4524,1.3338-4.4426,1.749-6.4422,1.7684-8.5152l0.0162-1.732,1.081,0.94298c0.59452,0.51864,3.115,2.6524,5.6012,4.7416,2.4861,2.0892,4.495,3.8205,4.4643,3.8472-0.19524,0.16967-2.8327,0.68475-5.5023,1.0746-3.9989,0.58395-5.3554,0.98337-6.5765,1.9365-1.7964,1.4022-1.6586,0.98876-1.8164,1.1568z" stroke-width="0" fill="#336791"/>
  <path id="path4463" d="m213.78,958.25c0.00005,0,0.62612-2.0912,1.5311-3.4598,2.3588-3.5674,4.0215-5.9865,3.9452-7.9253-0.0621-1.5777-0.0608-1.5831,0.30494-1.2938,0.20203,0.15979,2.796,2.336,5.7643,4.836l5.397,4.5455-0.76429,0.23369c-0.42036,0.12853-2.5321,0.51159-4.6928,0.85125-5.3731,0.84463-8.1734,0.73639-10.445,2.0672-0.60519,0.35454-1.0352,0.81494-1.1017,0.81494-0.0664,0-0.0387-0.30134,0.0616-0.66964z" stroke-width="0" fill="#336791"/>
  <path id="path4465" d="m230.6,970.99s0.49141-1.6786,0.98744-3.3482c1.4021-4.7196,1.6891-6.1432,1.6996-8.4314,0.009-1.9983,0.01-2.0021,0.3714-1.682,0.19921,0.17651,1.6171,1.4128,3.1508,2.7472,1.5338,1.3345,3.8561,3.414,5.1608,4.6212l2.3721,2.1949-0.87503,0.22983c-0.48126,0.1264-2.2411,0.4332-3.9107,0.68178-5.2203,0.7772-5.6377,1.6024-7.7666,2.4904-1.1898,0.49622-1.1898,0.49622-1.1898,0.49622z" stroke="#FFF" stroke-dasharray="none" stroke-width="0.40000001" fill="#336791"/>
  <path id="path4467" d="m243.67,981.62c0.32224-1.1084,0.47912-1.7383,0.90978-3.1536,1.271-4.177,1.6587-6.03,1.6885-8.0704l0.0206-1.4117,1.0074,0.87464c0.55408,0.48105,2.9294,2.8212,5.2785,5.2002,3.8619,3.9112,4.2382,4.345,3.9286,4.528-0.22776,0.13463-1.748,0.20559-4.5389,0.21185-5.0979,0.0114-4.3527,1.1071-7.0194,1.5901-1.2751,0.23097-1.2751,0.23097-1.2751,0.23097z" stroke-width="0" fill="#336791"/>
  <path id="path4467-3" d="m255.36,994.37c0.32224-1.1084,0.47912-1.7383,0.90978-3.1536,1.271-4.177,1.6587-6.03,1.6885-8.0704l0.0206-1.4117,1.0074,0.87464c0.55408,0.48105,2.9294,2.8212,5.2785,5.2002,3.8619,3.9112,4.2382,4.345,3.9286,4.528-0.22776,0.13463-1.748,0.20559-4.5389,0.21185-5.0979,0.0114-4.3527,1.1071-7.0194,1.5901-1.2751,0.23097-1.2751,0.23097-1.2751,0.23097z" stroke="#FFF" stroke-dasharray="none" stroke-width="0.60000002" fill="#336791"/>
  <path id="path4542" d="m196.22,929.13c-0.20008-0.29496-0.28589-0.51085-0.25638-0.64502,0.0244-0.11091,0.19537-0.77003,0.37994-1.4647l0.33558-1.263,1.7065,1.5683c0.93858,0.86258,1.718,1.596,1.7321,1.6299s-0.28728,0.0894-0.66964,0.12341c-0.83862,0.0746-2.1852,0.28535-2.6143,0.40911-0.17155,0.0495-0.31218,0.0889-0.3125,0.0877-0.00032-0.001-0.13592-0.20181-0.30132-0.44566z" stroke="#FFF" stroke-dasharray="none" stroke-width="0.35699999" fill="#336791"/>
  <g id="g4687" stroke-dasharray="none" transform="translate(-163.71135,673.85703)">
   <path id="path4362" d="m115.36,201.29c0,5.3256-3.2779,9.6428-7.3214,9.6428s-7.3214-4.3172-7.3214-9.6428,3.2779-9.6429,7.3214-9.6429,7.3214,4.3172,7.3214,9.6429z" transform="matrix(1.2086846,0.22903736,0,0.64595067,130.34239,-9.5392878)" stroke="#000" stroke-width="1.29999995" fill="none"/>
   <path id="path4362-3" d="m115.36,201.29c0,5.3256-3.2779,9.6428-7.3214,9.6428s-7.3214-4.3172-7.3214-9.6428,3.2779-9.6429,7.3214-9.6429,7.3214,4.3172,7.3214,9.6429z" transform="matrix(0.7479239,0.1417264,0,0.39970886,182.02162,51.446939)" stroke="#FFF" stroke-width="1.29999995" fill="#336791"/>
   <path id="path4362-3-9" d="m115.36,201.29c0,5.3256-3.2779,9.6428-7.3214,9.6428s-7.3214-4.3172-7.3214-9.6428,3.2779-9.6429,7.3214-9.6429,7.3214,4.3172,7.3214,9.6429z" transform="matrix(-0.7479239,0.1417264,0,0.39970886,414.39186,49.309613)" stroke="#FFF" stroke-width="1.29999995" fill="#336791"/>
   <path id="path4546" d="m355.42,274.04c-1.4192-0.81587-12.199-9.5832-18.763-15.261-8.4928-7.3452-14.056-11.203-21.246-14.731-3.7019-1.8169-8.4826-4.6237-10.624-6.2372-6.9764-5.2569-18.64-18.148-25.28-27.941-1.3494-1.9901-2.991-4.099-3.6479-4.6865-1.7505-1.5654-5.4245-3.5502-7.9312-4.2848-2.7013-0.7916-2.889,0.4653,2.52-16.871,8.1753-26.202,9.5093-35.703,6.0787-43.295-2.6051-5.7646-9.0241-8.981-17.923-8.9808-4.0451,0.00011-14.301,1.5525-18.446,2.7921-1.4781,0.44202-2.8775,0.73326-3.1098,0.64721-0.6628-0.24546,4.2696-14.559,7.1613-20.782,7.161-15.41,16.22-26.652,24.958-30.97,3.2322-1.5975,4.417-1.9072,8.0178-2.0962,4.7405-0.24881,14.48,0.61889,19.451,1.7329,22.149,4.9635,36.112,17.585,42.888,38.766,0.87795,2.7443,1.5309,5.0288,1.451,5.0767-0.0799,0.0478-1.4886,0.35507-3.1305,0.68274-6.213,1.2399-12.531,5.3637-15.203,9.923-2.6534,4.5278-3.4191,7.6747-3.4495,14.178-0.0216,4.6191,0.23448,7.1162,1.0765,10.497,2.3326,9.3652,7.7905,20.746,14.243,29.698l3.0645,4.2519-0.3043,3.7881c-0.46014,5.7279-1.4138,8.5771-3.5525,10.614-4.0809,3.8865-3.958,6.3519,0.62325,12.5,3.6428,4.8886,5.1997,7.6213,7.2362,12.701,1.8449,4.6018,5.2784,10.063,11.286,17.952,6.8683,9.0188,8.4512,13.857,6.1805,18.893-0.98494,2.1842-1.7826,2.5017-3.6247,1.4426z" stroke="#FFF" stroke-width="4.5" fill="#336791"/>
   <path id="path4548" d="m334.93,184.15c-4.7499-7.8357-8.0845-15.22-9.7506-21.592-1.0534-4.0288-1.7761-11.207-1.426-14.163l0.30274-2.5561,1.4258,1.7298c2.7441,3.3291,8.3232,3.4643,13.278,0.32176,5.1867-3.2893,5.8154-8.5092,1.3057-10.841-2.6705-1.381-8.3199-0.71271-11.184,1.3229-1.9033,1.3527-2.3293,1.1795-0.89396-0.36351,2.9144-3.1331,9.3952-6.2598,12.975-6.2598,1.4023,0,1.4396,0.0758,2.0465,4.1669,1.6386,11.045,2.0692,37.071,0.68372,41.322-0.32259,0.98985-1.4716,2.986-2.5533,4.4358s-2.2224,3.6515-2.535,4.8925c-0.3125,1.241-0.63001,2.2565-0.70558,2.2565-0.0756,0-1.4118-2.1024-2.9695-4.672z" stroke="#FFF" stroke-width="4.5" fill="#336791"/>
   <path id="path4550" d="m254.11,197.65c-6.8534-1.6974-10.885-3.633-13.209-6.3422-2.8964-3.3757-5.7702-9.6304-6.9409-15.107-1.7096-7.997-1.2694-23.444,0.96325-33.798,0.36677-1.7009,0.44455-1.7447,5.5093-3.106,14.571-3.9165,25.448-3.701,29.839,0.5913,2.703,2.6426,3.3102,5.1232,2.9853,12.194-0.33867,7.3703-1.0709,10.433-7.5462,31.561-4.1178,13.436-4.8016,15.268-5.6904,15.246-0.55559-0.0139-3.215-0.57143-5.9098-1.2389zm11.502-45.755c3.7855-0.9532,5.7036-4.2298,4.1966-7.1688-2.6158-5.1015-11.085-8.0757-15.438-5.4215-2.1379,1.3036-2.8544,2.776-2.5295,5.1984,0.42843,3.1942,3.5145,5.958,8.0004,7.1648,3.39,0.91197,3.097,0.90043,5.7707,0.22718z" stroke="#FFF" stroke-width="4.5" fill="#336791"/>
   <path id="path4552" d="m344.43,218.42c-2.0415-0.76003-5.1788-3.0573-6.0401-4.4227-0.36772-0.58295-0.20601-1.2093,0.60705-2.3511,0.60955-0.85604,1.5163-3.1632,2.015-5.1269l0.90673-3.5705,0.97091,1.0853c3.1215,3.4894,10.104,5.9342,18.33,6.4178l5.8673,0.3449-3.8506,2.3975c-8.599,5.3539-14.247,6.9233-18.806,5.2257z" stroke="#FFF" stroke-width="4.5" fill="#336791"/>
   <path id="path4554" d="m246.73,224.15c-3.1626-0.56693-5.3038-1.5396-4.1307-1.8764,3.9159-1.1243,9.9719-3.7004,13.097-5.5713,6.9504-4.1608,10.129-7.3392,10.133-10.133,0.002-1.0432,0.17441-1.1498,1.3908-0.85819,3.1756,0.7613,5.8826,3.0566,9.2802,7.8687,2.8434,4.0271,3.2632,4.8792,2.6441,5.3662-1.1485,0.9033-10.074,3.5698-14.864,4.4409-5.5493,1.009-14.105,1.3812-17.551,0.76336z" stroke="#FFF" stroke-width="4.5" fill="#336791"/>
   <path id="path4556" d="m213.92,223.03c-4.7532-2.7591-15.5-24.186-22.856-45.571-7.8654-22.866-11.468-39.606-11.957-55.558-0.32107-10.476,0.35898-15.487,2.8138-20.733,3.867-8.2637,15.48-14.766,30.614-17.142,11.402-1.7898,19.605-1.4875,28.432,1.048,4.3454,1.2482,12.233,4.6181,12.233,5.2265,0,0.17217-1.1523,1.8978-2.5607,3.8347-8.9012,12.242-15.905,28.304-19.615,44.984-3.2482,14.604-3.6336,29.759-1.018,40.024,1.979,7.7661,6.5602,15.416,10.863,18.141,1.2058,0.76343,2.2006,1.5877,2.2107,1.8317,0.0378,0.90828-3.2849,6.254-6.3462,10.21-3.8071,4.9201-9.1357,9.9297-13.082,12.299-3.275,1.9664-7.6704,2.6009-9.731,1.4048z" stroke="#FFF" stroke-width="4.5" fill="#336791"/>
   <path id="path4558" d="m349.18,164.33c-0.10614-32.43-4.6355-50.374-16.503-65.382-4.8123-6.0859-10.181-10.343-18.572-14.727-5.0546-2.6409-5.2152-2.3876,2.4799-3.9127,12.01-2.3802,23.813-2.7114,30.81-0.86442,10.386,2.7417,17.362,9.8844,20.014,20.489,1.0378,4.1509,0.89419,19.192-0.23862,25.001-2.7222,13.961-9.0717,32.125-15.89,45.457l-2.0666,4.0406-0.0331-10.102z" stroke="#FFF" stroke-width="4.5" fill="#336791"/>
   <path id="path4560" d="m328.13,148.34c-0.95843-0.46009-1.7358-1.1337-2.1786-1.888-0.29943-0.51004-0.34596-0.72575-0.34635-1.6059-0.00042-0.91958,0.0442-1.1066,0.46716-1.9572,1.2144-2.4425,3.9124-4.3525,7.3106-5.1755,1.5462-0.37447,3.9625-0.40786,5.0958-0.0704,2.3496,0.69958,3.5319,2.0178,3.5218,3.9266-0.006,1.1232-0.33729,1.9923-1.1926,3.1285-0.56128,0.74554-2.3926,2.3627-2.6769,2.3638-0.0554,0.00022,0.0699-0.21268,0.27834-0.47311,0.90347-1.1288,1.2301-2.8297,0.72714-3.7861-0.74268-1.4122-2.4635-2.158-4.652-2.0162-2.7053,0.17527-5.3924,1.7918-6.3527,3.8216-0.61741,1.3051-0.32968,2.8931,0.67412,3.7206,0.57731,0.47586,0.3017,0.48044-0.67576,0.0112z" stroke="#FFF" stroke-width="0.50507629" fill="#336791"/>
   <path id="path4562" d="m257.81,149.75c-1.9597-0.93569-3.7278-2.5194-4.4283-3.9663-0.78335-1.6182-0.61748-3.6046,0.38871-4.6548,2.0807-2.1718,6.9432-2.1978,10.732-0.0576,3.0532,1.7248,4.5457,3.6101,4.5457,5.742,0,0.7444-0.15703,1.4989-0.37078,1.7815-0.35042,0.4633-0.37122,0.44461-0.37881-0.3406-0.0175-1.8112-1.4874-3.6368-3.7819-4.697-2.7512-1.2712-5.4435-1.0889-7.0069,0.47446-1.3925,1.3925-1.1122,3.3695,0.72081,5.0833,0.46327,0.43312,1.0696,0.91265,1.3474,1.0656,1.1111,0.61183-0.30924,0.266-1.7678-0.43042z" stroke="#FFF" stroke-width="1.01015258" fill="#336791"/>
  </g>
  <path id="path4566" d="m297.68,983.87c-0.6875-0.13336-1.2339-0.44336-1.2143-0.68889,0.0196-0.24554,0.0598-0.64732,0.0893-0.89286,0.0399-0.33287,1.3481-0.45064,5.1428-0.46299,5.6953-0.0185,7.7812-0.56137,10.726-2.7912,1.8316-1.387,3.5564-4.3654,2.8019-4.8383-0.79076-0.49569-4.5949-0.80963-7.1477-0.58985l-2.3622,0.20336,1.4286-0.61053c1.1618-0.4965,2.607-0.61352,7.7377-0.62656,3.47-0.009,6.4139,0.0885,6.5419,0.2163,0.35479,0.35425-1.5251,3.8493-3.0615,5.692-1.4408,1.728-4.2385,3.4184-7.7269,4.6687-1.6104,0.57721-3.1196,0.76384-6.884,0.85134-2.6518,0.0616-5.3839,0.003-6.0714-0.1304z" stroke-width="0" fill="#336791"/>
  <path id="path4362-33" d="m171.02,746.71c-0.61231,0.01-1.2322,0.0321-1.8438,0.0625-9.397,1.1648-20.405,0.14331-28.156,6.3125-0.0795,0.13849-0.15029,0.26912-0.21875,0.40625-2.641-0.83431-5.3301-1.505-8.0938-1.9375-6.7451-1.3356-13.646-1.8934-20.531-1.7188-8.0228,0.65701-14.692,4.6128-20.281,10.031-3.6973-3.5754-10.25-4.4031-14.844-6.3438-5.6806-1.5939-11.598-2.3138-17.5-2.125-17.326,0.68983-37.749,4.9358-47.125,20.969-7.7021,16.924-2.9416,36.342,0.375,53.813,6.1899,25.852,15.255,51.602,30.125,73.719,5.3392,5.9951,14.785,5.1306,20.625,0.3125,8.4836-5.7171,15.819-13.981,19.719-23.438,0.96421,0.29497,1.9756,0.54663,3,0.71875,2.796,1.2269,6.4057,1.9837,9.5625,1.4688-0.82034,1.9723-1.6724,3.9533-3.8438,4.625-6.1186,4.4679-11.304,11.33-17.804,15.272,1.248,5.0754,7.4812,2.8732,11.152,3.9286,11.616-0.058,22.262,1.3164,32.371-4.7321,10.231,12.517,22.643,23.404,37.562,29.75,13.109,7.9066,22.605,21.827,37.031,27.188,9.0443-0.68183,11.28-12.858,7.375-19.594-5.3214-11.879-16.085-20.758-19.656-33.531-0.61507-1.1973-1.4065-2.3194-2.25-3.4062,6.7811,2.2249,14.969,0.42162,20.75-3.7188,7.8552-4.4893,15.213-9.7722,23.219-14.031-12.561-2.7677-26.764,1.274-38.156-5.75-2.8637-1.7294-5.4359-2.7963-5.0982-7.9598,15.495-27.054,31.804-61.336,30.661-91.634-2.1212-15.922-16.683-28.275-32.625-28.5-1.8319-0.12285-3.6631-0.18539-5.5-0.15625z" stroke="#000" stroke-dasharray="none" stroke-width="2" fill="none"/>
  <path id="path4429-9" d="m202.37,892.26c-9.054,5.3323-17.946,11.062-15.629,23.344,5.0298,5.4862,10.859,17.788,13.603,17.911,5.8458,12.042,0.14255,14.786-1.9427,18.892-5.1896,4.7257-15.745,0.0625-16.566-2.678,0,0-3.7288-3.4718-5.2455-5.0134-7.2376-2.8612-9.6963-10.764-14.531-10.125-9.4841,7.3946-6.5304,19.99-3.9375,30.201,3.4832,10.696,10.852,19.538,17.938,28,8.2853,6.8913,18.863,10.317,26,18.625,16.058,14.882,33.164,32.432,56.406,33.656,14.871,2.0419,29.906,2.4667,44.938,2.1563,11.51-0.3037,24.742-0.9618,33.719-8.75,3.0609-4.9693-2.3941-9.2359-5.8438-11.875-4.51-8.6212-7.1396-18.333-8.4062-27.875,1.8973-8.5954,7.2297-16.829,6.4375-25.812-1.5384-4.3625-4.7942-11.921-10.531-9.4688-5.7741,3.4637-11.547-4.2623-17.625-1.1875-8.286,2.5114-14.262,11.418-23.344,11.344-5.5178-3.5923-9.7821-9.2289-15.375-13-12.68-10.773-27.437-20.005-37.188-33.438-4.7615-11.445-4.7234-27.379-17.312-33.688-1.7424-0.78234-3.6501-1.2346-5.5625-1.2188zm11.745,55.851c-0.2507,2.8875-3.5178,13.412-3.5178,13.412s-13.351,0.50406-18.321,2.1434c1.2497-3.4456,6.1242-11.26,6.1242-11.26s9.4481-2.1815,15.715-4.2958zm16.459,10.772c-0.7899,3.6556-4.8602,14.952-4.8602,14.952-9.7662,1.3162-16.831,6.1494-22.245,5.0779,1.2837-4.2654,6.8687-13.011,7.128-17.39,9.6784-1.1958,13.268-1.4519,19.977-2.6396zm10.876,13.575s-3.2367,10.374-3.9891,13.02c-7.31,1.5075-11.909,2.6037-19.111,3.9223,0.44248-2.1265,7.3645-15.565,7.3645-15.565s6.7982-1.3766,15.736-1.3766zm13.071,11.831c-0.42482,1.8258-2.5614,9.0802-3.0478,10.898-5.43,0.20077-10.867,1.4856-15.854,3.2597,0.65467-2.7258,1.488-8.1985,2.1225-10.934,4.6504-0.77186,12.169-2.3276,16.779-3.2238zm11.602,11.669c2.6908,3.8907,7.0794,8.5685,9.3003,12.85,1.5111,3.8306,2.5969,11.752,1.141,15.465-3.296-0.4272-7.2096-2.8327-10.289-4.1389-2.3559-5.3221-3.2212-9.9979-0.75917-12.842-0.33663,0.7743-16.17,4.229-16.17,4.229s3.1013-12.493,3.5777-14.799c4.056-0.66847,9.192-0.0327,13.199-0.76476z" stroke="#000" stroke-dasharray="none" stroke-width="2" fill="none"/>
  <path id="path5066" d="m282.7,1046.1c-7.6922-0.3168-14.102-0.8227-21.586-1.7037-1.779-0.2094-3.9769-0.4504-4.8842-0.5355-10.716-1.0047-21.639-6.0086-33.403-15.302-3.5057-2.7694-6.5959-5.4377-11.552-9.9751-5.3052-4.8568-7.0367-6.4886-9.3097-8.7733-4.071-4.0921-6.1992-5.6406-15.049-10.95-5.8435-3.5058-9.5101-6.0476-10.639-7.3752-1.1214-1.3192-4.7926-5.8412-5.8789-7.2413-6.4842-8.3576-10.223-15.259-11.8-21.778-1.6379-6.7736-2.2297-11.319-1.9384-14.885,0.39475-4.8325,1.7954-8.1129,4.6858-10.974l1.0492-1.0387,0.58923,0.0808c0.71365,0.0978,1.8738,0.70678,2.6627,1.3976l0.58152,0.50926-0.47249,0.55199c-1.3679,1.5981-2.6309,5.3353-2.9961,8.8655-0.13913,1.3448-0.0348,3.2489,0.39956,7.2922,0.65761,6.1215,1.743,10.078,4.0062,14.604,2.0957,4.191,4.2498,7.0717,9.0854,12.15,9.7492,10.239,23.746,22.016,44.306,37.283,7.6166,5.6555,23.359,17.07,24.602,17.84,5.577,3.4497,13.087,5.8881,21.911,7.1135,10.406,1.4453,23.288,1.1735,37.104-0.7826,5.6821-0.8045,15.848-2.6833,19.718-3.6444,5.1141-1.2698,9.4328-3.12,9.5455-4.0894,0.0348-0.2996-0.11317-0.442-1.2153-1.1687-2.0665-1.3627-4.1596-3.6163-5.6482-6.0815-1.6566-2.7432-2.2747-4.4491-4.4493-12.278-0.65548-2.36-1.6424-5.6086-2.1932-7.2193l-1.0014-2.9283-0.13406-2.3527c-0.26077-4.577,0.0989-6.1488,3.6213-15.825,1.9891-5.4643,3.0611-8.76,3.7176-11.43,0.71289-2.8987,0.71285-2.8977,0.12508-3.7511-0.98535-1.4307-2.5797-2.7123-4.2475-3.4143-1.6619-0.69948-2.989-0.96053-6.8342-1.3443-2.7668-0.27616-3.818-0.48352-4.9337-0.9732-0.50583-0.22201-1.088-0.40286-1.2936-0.40189-0.20567,0.00092-0.87894,0.18325-1.4962,0.40507-0.61722,0.22182-1.746,0.61065-2.5085,0.86407-1.9696,0.65464-3.7005,1.6058-9.4206,5.1766-5.97,3.7268-5.6042,3.5056-7.3466,4.4423-3.6165,1.944-5.9119,2.5408-9.2961,2.4167-2.5776-0.0945-3.0779-0.39731-7.9387-4.805-5.0813-4.6076-8.9497-7.8745-17.026-14.379-9.2861-7.4786-16.041-13.03-19.672-16.166-5.0577-4.3685-9.3403-8.5079-10.72-10.362-1.9643-2.6393-3.2983-5.8422-5.0563-12.14-0.43617-1.5626-0.79304-2.875-0.79304-2.9166,0-0.0415,0.81195-0.0589,1.8043-0.0387l1.8043,0.0367,0.37934,1.3863c0.71491,2.6125,1.4343,4.92,2.0324,6.5193,0.64622,1.7278,1.1901,2.5513,3.5614,5.393,4.7979,5.7495,10.969,11.369,21.642,19.708,4.9742,3.8862,8.0932,6.3635,10.265,8.1525,1.216,1.0019,2.8202,2.2767,3.5647,2.8328,1.9164,1.4314,2.73,2.1297,5.6393,4.8405,4.7947,4.4675,5.7007,5.2528,7.8585,6.8111l1.318,0.95185,1.0585-0.0846c4.5742-0.36554,6.7135-1.3881,15.309-7.3177,3.125-2.1558,4.7414-3.026,7.5157-4.0456,2.6583-0.97698,3.7551-0.89591,7.8965,0.58368,3.2823,1.1727,3.7549,1.3087,5.1258,1.4754,1.6731,0.20343,2.6114,0.0314,4.7534-0.87147,2.8981-1.2216,5.349,0.47127,7.6551,5.2873,0.41725,0.87136,0.92322,2.0224,1.1244,2.5578,0.36031,0.95896,0.36468,1.0064,0.29218,3.1686-0.12598,3.7564-0.74772,6.3139-3.1334,12.889-1.3684,3.7714-2.6435,7.6248-3.0356,9.1733-0.27815,1.0986-0.27937,1.1486-0.0649,2.6405,1.3263,9.2248,3.8378,17.663,7.5456,25.351l0.85955,1.7824,1.2012,0.9241c0.66062,0.5083,1.7723,1.4886,2.4704,2.1785,1.9994,1.9757,2.801,3.4032,2.8172,5.0169,0.0139,1.3825-0.31078,2.13-1.2741,2.9332-1.2962,1.0807-3.0469,2.1739-5.0375,3.1458-5.3571,2.6153-10.985,3.8325-20.794,4.4973-2.655,0.1799-23.41,0.2667-27.131,0.1135z" stroke="#FFF" stroke-dasharray="none" stroke-width="0.40927836" fill="#FFF"/>
  <path id="path5068" d="m276.07,1028.1c-0.10892-0.021-0.64362-0.1093-1.1882-0.1953-11.209-1.7714-39.727-17.511-63.24-34.903-12.008-8.8816-21.391-17.155-28.393-25.036-2.8423-3.1988-5.9702-7.6298-7.4447-10.546-0.32537-0.64353-0.33981-0.72982-0.15331-0.91632,0.24833-0.24833,0.16659-0.34535,0.92569,1.0986,1.3231,2.5168,3.8243,6.1505,5.9979,8.7137,1.9416,2.2895,4.4198,5.083,4.5093,5.083,0.0474,0,0.16018-0.8169,0.2507-1.8153,0.28184-3.1087,0.53293-4.5033,1.1412-6.3385,0.55216-1.6659,2.578-6.887,2.8252-7.2812,0.0954-0.15222,0.18674-0.15708,0.50148-0.0267,0.43595,0.18058,1.7432,0.0279,2.8498-0.33296,0.34962-0.11399,0.65509-0.18635,0.67882-0.1608,0.0237,0.0255-0.61815,1.2347-1.4264,2.687-1.4451,2.5967-3.4511,6.9564-3.2391,7.04,0.0595,0.0234,0.83779-0.1682,1.7296-0.42589,1.8868-0.54519,3.8187-0.90583,6.7704-1.2639,3.0162-0.36586,10.232-0.91174,10.232-0.77405,0,0.19595-0.97547,2.8918-1.4414,3.9836-0.30477,0.71411-1.4646,3.1797-2.5774,5.479-1.6831,3.4777-3.2425,7.1048-3.2425,7.5419,0,0.13635,2.1057,0.40172,3.1776,0.40047,1.8684-0.002,3.7173-0.45214,9.0162-2.1942,2.0956-0.68893,3.8338-1.229,3.8626-1.2002,0.12636,0.12636-2.5294,1.8556-3.4053,2.2174-0.53174,0.21959-3.3135,1.1114-6.1818,1.9819-2.8682,0.87046-5.586,1.7706-6.0394,2.0003l-0.82436,0.41765,0.36227,0.38254c1.31,1.3833,11.049,8.8153,12.16,9.2796,1.0842,0.453,1.0549,0.47582,0.9777-0.76107-0.14613-2.3422,0.47993-4.8463,2.7308-10.923,1.6661-4.4978,1.5564-4.0543,1.1166-4.5134-0.20218-0.21103-0.32072-0.38369-0.26343-0.38369,0.0573,0,1.0041-0.22992,2.1041-0.51093,1.1-0.28102,2.2265-0.55176,2.5034-0.60166l0.50343-0.0907-0.99076,1.8889c-1.0329,1.9693-3.8693,7.8511-4.6672,9.6784-0.48601,1.113-1.3561,3.5748-1.3561,3.8368,0,0.11155,0.33819,0.088,1.2212-0.085,0.67168-0.1316,2.7362-0.53619,4.5879-0.89909,1.8516-0.36289,5.7679-1.168,8.7028-1.7891,2.9349-0.62112,5.3541-1.1114,5.3759-1.0896,0.0401,0.0401-0.58876,3.3733-1.8185,9.6394-0.36788,1.8745-0.63897,3.4381-0.60241,3.4747,0.0366,0.0366,1.3942-0.35787,3.017-0.87651,5.2001-1.6619,8.6604-2.3578,13.48-2.7109,0.93544-0.0685,1.1437-0.051,1.0932,0.0922-0.0344,0.0973-0.50665,2.0484-1.0495,4.3358-0.54287,2.2873-1.4273,5.956-1.9655,8.1525-0.73137,2.9853-0.93291,3.9938-0.79816,3.9938,0.0991,0,0.80886-0.1485,1.5772-0.3301,1.921-0.4539,1.9763-0.3979,0.18525,0.1872-1.2238,0.3997-2.1435,0.8027-2.621,1.1485-0.0256,0.019,0.10194,0.358,0.28345,0.7545,0.28924,0.6318,0.44218,0.7863,1.2383,1.2513,1.4328,0.8368,6.849,3.6349,9.7758,5.0503l2.6693,1.2909,0.40025-0.739c0.22014-0.4064,0.40232-0.9215,0.40486-1.1446,0.0123-1.0795,1.0569-5.2246,1.3168-5.2246,0.0489,0,0.1648,0.3416,0.25757,0.7592,0.29458,1.3258,1.7785,5.182,1.9941,5.182,0.0571,0,1.4598,0.6455,3.1173,1.4345,3.606,1.7165,5.1825,2.3241,7.0676,2.7239l1.4135,0.2998,0.33946-1.0193c0.77831-2.3371,0.89161-5.6942,0.32548-9.6441-0.26751-1.8664-0.84711-4.4106-1.304-5.7241-0.55441-1.5936-2.9313-5.0862-6.6174-9.7232-0.54821-0.68965-1.5218-1.9668-2.1636-2.8382-0.64177-0.87137-1.1798-1.6004-1.1955-1.6202-0.0158-0.0197-0.76509,0.0534-1.6651,0.16245-0.90005,0.10907-3.7456,0.26056-6.3234,0.33664-2.5778,0.0761-5.0137,0.1886-5.413,0.25004-0.39938,0.0614-0.74561,0.0948-0.76941,0.074-0.0238-0.0207,0.37343-1.5134,0.88273-3.317,1.663-5.8893,2.5741-9.2836,2.5093-9.3484-0.035-0.035-2.7336,0.46738-5.997,1.1164-6.5995,1.3125-11.455,2.2278-11.523,2.172-0.046-0.0379,1.2313-4.2853,3.3044-10.988,0.6578-2.127,1.1737-3.8882,1.1464-3.9138-0.1138-0.10696-7.6408,0.19486-9.6988,0.38891-2.126,0.20045-4.7361,0.5189-5.485,0.66917l-0.34743,0.0697,0.71272-2.0204c1.8172-5.1515,4.1366-12.697,3.9579-12.876-0.0258-0.0258-1.1092,0.13139-2.4074,0.34941-1.2982,0.21801-3.4001,0.54354-4.6709,0.72338-3.0472,0.43126-12.53,1.5584-12.669,1.5059-0.06-0.0226,0.12239-0.81348,0.40528-1.7575,1.4417-4.8109,2.996-11.49,2.7346-11.751-0.0349-0.0349-0.97979,0.22773-2.0997,0.58371-2.7744,0.88189-3.9043,1.2153-6.5239,1.9249-2.2022,0.59654-5.8013,1.5192-5.9262,1.5192-0.0349,0,0.32042-0.56217,0.78959-1.2493,1.7065-2.4993,2.3105-4.2856,2.3229-6.8703,0.0121-2.5255-0.63949-5.1664-2.0717-8.3966-0.32709-0.73772-0.5947-1.3552-0.5947-1.3721s0.39355-0.0711,0.87455-0.12035c1.0367-0.10622,2.0145-0.32579,3.304-0.74192l0.94398-0.30462,2.1586,1.846c1.1872,1.0153,5.7233,4.8389,10.08,8.4968,11.636,9.7691,11.631,9.7652,16.503,13.983,9.1118,7.8882,15.756,14.13,22.356,21.002,9.3936,9.7807,14.75,16.679,19.431,25.023,3.9297,7.0048,5.8485,13.056,6.3463,20.014,0.14116,1.9729,0.13443,2.2658-0.0667,2.9045-0.66921,2.1253-2.4967,3.1705-5.486,3.1375-0.76402-0.01-1.4782-0.033-1.5872-0.054zm-30.122-16.241c-0.29173-1.5833,0.30844-4.1937,2.1218-9.2285,0.93523-2.5967,1.5076-4.4312,1.3824-4.4312-0.16162,0-0.99658,0.49792-1.9214,1.1458-1.5401,1.0789-2.248,1.3748-8.6256,3.6051-4.1203,1.4409-4.946,1.7505-5.5967,2.0988l-0.44772,0.2397,0.8438,0.5953c1.361,0.9601,6.0145,3.7706,11.274,6.8088,0.88078,0.5088,0.92886,0.5214,1.024,0.268,0.0549-0.1463,0.0305-0.6421-0.0542-1.1018zm-15.168-13.074c0.26121-1.3132,0.64183-2.6296,1.6753-5.7941,0.54424-1.6665,1.1305-3.5567,1.3027-4.2003l0.31318-1.1703-0.71624,0.40423c-0.39393,0.22232-1.1647,0.72602-1.7129,1.1193-2.6242,1.8829-6.5219,3.4003-11.688,4.55-1.9031,0.42356-2.2851,0.54726-2.6992,0.87407-0.25679,0.20265-0.25442,0.21227,0.13202,0.53738,0.82157,0.69118,3.57,2.6112,8.2364,5.7538l4.8316,3.2538,0.0846-2.2721c0.0465-1.2496,0.15471-2.6247,0.24044-3.0558zm25.805-4.3572c0.57463-0.11488,1.5549-0.43762,2.1784-0.7172,1.5243-0.6835,2.2331-0.78848,6.0858-0.90131,2.8377-0.0831,3.3286-0.12772,3.5209-0.31996,0.19909-0.19909,0.20278-0.26331,0.034-0.59036-0.22089-0.42792-8.0084-8.3441-9.5632-9.7212l-1.0562-0.93549-0.0887,1.8442c-0.11189,2.3262-0.37662,3.6082-1.6684,8.0796-0.96093,3.326-1.018,3.5902-0.76294,3.5327,0.15161-0.0342,0.74581-0.15612,1.3204-0.271zm-55.33-11.79c0.0466-0.59906,0.0852-1.713,0.0858-2.4755,0.002-2.6209,0.37548-4.0348,2.8434-10.76,1.4216-3.8739,2.1182-5.9751,2.0151-6.0782-0.0337-0.0337-0.52873-0.0217-1.1001,0.0265-1.0116,0.0855-1.0743,0.11179-2.3966,1.0041-1.722,1.1621-2.3393,1.4082-7.205,2.8731-7.5804,2.2822-7.5298,2.2624-7.8813,3.0838l-0.23237,0.54299,0.36423,0.5281c0.56197,0.81482,6.2382,6.144,11.122,10.442,1.1778,1.0366,2.1772,1.8886,2.221,1.8935,0.0437,0.005,0.11761-0.48127,0.16424-1.0803zm44.711-1.6179c0.47199-0.16848,1.2214-0.45916,1.6654-0.64596,0.96616-0.40654,2.1992-0.60156,3.8258-0.6051,1.887-0.004,4.7738-0.16467,4.953-0.27547,0.12402-0.0767,0.10465-0.19008-0.0811-0.47503-0.67162-1.0303-9.7565-10.069-9.938-9.8872-0.0371,0.0372-0.1127,0.79659-0.16788,1.6876-0.0552,0.89105-0.22687,2.2219-0.38152,2.9575-0.21675,1.0309-1.5004,5.6751-2.07,7.4895-0.0708,0.2254-0.0197,0.23779,0.62953,0.15287,0.38861-0.0508,1.0927-0.23024,1.5647-0.39871zm-13.17-10.879c2.7352-1.2538,3.3604-1.4342,7.3605-2.1245,3.4158-0.58943,4.3568-0.79259,4.3568-0.94061,0-0.1089-2.8495-2.7275-6.6013-6.0663-3.5806-3.1865-4.3629-3.8393-4.5335-3.7829-0.0943,0.0312-0.16495,0.42783-0.18345,1.0303-0.10169,3.3114-0.58814,5.5523-2.7562,12.697-0.0386,0.12708-0.0364,0.23105,0.005,0.23105,0.0412,0,1.0997-0.46979,2.3524-1.044zm-16.41-12.73c1.3375-0.41898,1.2412-0.40204,5.6874-1.0004,4.02-0.54095,7.3777-1.1088,8.1625-1.3805l0.44909-0.15548-5.5698-4.6799c-3.0634-2.5739-5.6248-4.6997-5.692-4.7239-0.0674-0.0243-0.12225,0.3632-0.12225,0.86344,0,1.7667-0.61775,3.234-2.7677,6.574-1.5818,2.4573-1.7675,2.7914-2.2997,4.1373-0.69336,1.7534-0.66539,1.8534,0.33711,1.2055,0.44815-0.28965,1.265-0.66768,1.8154-0.84006zm-12.452-9.8497c0.31914-0.21784,0.84388-0.576,1.1661-0.7959,1.2038-0.82164,2.5291-1.23,5.5534-1.711,2.8738-0.45712,6.067-1.0648,6.1778-1.1757,0.0938-0.0938-2.3793-2.2591-8.8183-7.721l-2.1124-1.7918-0.0851,1.9438c-0.11073,2.53-0.22698,3.085-1.7724,8.4626-0.46695,1.6248-0.84899,3.0061-0.84899,3.0696,0,0.1863,0.12592,0.13854,0.73999-0.28062z" stroke="#FFF" stroke-dasharray="none" stroke-width="0.40927836" fill="#FFF"/>
  <path id="path5078" d="m175.15,955.17c-0.0484-0.0484-0.088-0.43154-0.088-0.8514,0-1.1747-0.36263-3.7281-0.74784-5.2658-0.35939-1.4346-0.90568-2.9673-1.6184-4.5409-0.22675-0.50059-0.39607-0.92571-0.37627-0.9447,0.10153-0.0974,2.9881,1.8517,4.0097,2.7073,0.64642,0.54145,1.5021,1.2507,1.9015,1.5762,1.2221,0.99589,2.6828,2.4281,3.0437,2.9844,0.40018,0.61681,1.049,1.2082,2.0673,1.8843l0.7291,0.4841-2.755,0.48129c-3.7774,0.65989-4.5081,0.86256-4.9262,1.3664-0.17094,0.20597-1.0664,0.29175-1.2395,0.11872z" stroke="#FFF" stroke-dasharray="none" stroke-width="0.40927836" fill="#FFF"/>
  <path id="path5080" d="m299.26,986.01c-1.7431-0.12596-4.0624-0.57589-4.6133-0.89495-0.34455-0.19955-0.40101-0.31439-0.43402-0.88286-0.0498-0.85801,0.50493-3.022,1.0912-4.2565,1.3598-2.8632,3.9612-5.3897,7.2644-7.0551,2.9497-1.4872,5.6128-2.274,8.4496-2.4965,2.2025-0.17272,5.1706-0.0678,6.3096,0.22297,0.95941,0.24496,2.4486,0.76516,2.9859,1.043,2.4336,1.2585,2.3357,4.0107-0.2655,7.4628-1.0797,1.4328-2.4172,2.7767-3.3705,3.3866-1.8264,1.1683-5.6438,2.6657-8.0314,3.1503-2.0827,0.42271-6.0804,0.55911-9.386,0.32024zm6.299-2.1035c3.6775-0.20394,4.8427-0.50851,8.0994-2.1171,1.9902-0.98305,3.8185-2.257,4.5898-3.1983,1.2858-1.5691,3.1337-4.7932,3.1337-5.4673,0-0.15227-0.0848-0.30939-0.18844-0.34916-0.10365-0.0398-2.0197-0.11218-4.2578-0.16091-5.1678-0.1125-8.053,0.051-9.5057,0.53865-1.5372,0.51603-1.5968,0.61498-0.30679,0.50973,2.6642-0.21736,6.3135-0.0422,7.6855,0.36883,0.6164,0.18468,0.71112,0.46195,0.43836,1.2832-0.44594,1.3426-2.0378,3.2231-3.6364,4.2956-2.4301,1.6304-4.72,2.1799-9.1362,2.1924-2.2065,0.006-5.3239,0.18282-5.6689,0.32109-0.26147,0.1048-0.40188,0.98077-0.19849,1.2382,0.0777,0.0983,0.29221,0.24117,0.47673,0.31741,0.80018,0.33065,4.7196,0.43593,8.4752,0.22765z" stroke="#FFF" stroke-dasharray="none" stroke-width="0.40927836" fill="#FFF"/>
  <path id="path5082" d="m216.84,915.13c-1.6402-6.2248-3.2601-10.135-5.3451-12.902-1.3944-1.8505-2.8046-3.0378-4.659-3.9226-2.5859-1.2338-5.75-1.0034-8.7015,0.63368-4.3681,2.4227-8.309,6.8777-10.187,11.516l-0.55139,1.3617,0.11208-1.307c0.33466-3.9024,1.9639-7.0326,5.3522-10.283,1.8757-1.7993,3.0692-2.6624,6.9585-5.0319l2.9782-1.8145,1.1294,0.0942c2.2226,0.18546,4.4946,1.2316,7.02,3.2325,3.2057,2.5398,5.8842,6.8682,7.7438,12.514,0.43582,1.3231,2.5162,8.4309,2.5162,8.5968,0,0.0369-0.8192,0.0667-1.8204,0.0661l-1.8204-0.00094-0.7254-2.753v-0.00006z" stroke="#FFF" stroke-dasharray="none" stroke-width="0.578807" fill="#FFF"/>
  <path id="path5084" d="m191.41,920.11c-0.91857-1.3417-1.7854-2.602-1.9263-2.8007-0.22356-0.31521-0.21644-0.36118,0.0559-0.36118,0.47182,0,1.3511,0.50441,2.1718,1.2459,0.77366,0.69896,0.92211,1.2613,0.508,1.9244-0.19391,0.3105-0.15593,0.44169,0.25602,0.88435,0.39964,0.42943,0.88009,1.5467,0.66512,1.5467-0.0333,0-0.81208-1.0978-1.7306-2.4395z" stroke="#FFF" stroke-dasharray="none" stroke-width="0.578807" fill="#FFF"/>
  <path id="path5086" d="m192.43,953.02c0.31651-0.59141,0.27547-0.67684-0.64157-1.3354-0.72987-0.52415-0.94811-0.59255-1.5404-0.48276-0.37952,0.0704-0.96342,0.29595-1.2976,0.50133l-0.60753,0.37342-1.2596-0.70379c-3.2412-1.811-6.6634-4.2963-8.448-6.1351-0.6675-0.68779-1.5917-1.4499-2.0538-1.6936-0.89101-0.46982-0.92161-0.49552-7.681-6.452-7.2966-6.4298-11.424-9.4631-15.098-11.096-11.09-4.9278-22.985-14.258-32.848-25.764-1.5842-1.8482-2.9022-3.39-2.9288-3.4263-0.0266-0.0362-0.83093,0.35355-1.7874,0.86617-3.6155,1.9378-7.3069,3.084-11.915,3.6999-4.9512,0.66174-24.123,0.38416-26.798-0.388-0.87364-0.25212-1.8487-1.0076-1.9885-1.5408-0.0331-0.12607,0.31138-0.47792,0.76544-0.78188,0.82081-0.54948,0.82814-0.55062,1.2758-0.19849,1.993,1.5677,7.9804,2.3324,14.711,1.879,7.2791-0.49028,13.741-1.7906,20.528-4.1309,3.57-1.231,4.5796-1.8771,4.9498-3.1678,0.30562-1.0656-0.041-2.0917-1.4418-4.2681-0.55286-0.85896-0.97354-1.5934-0.93484-1.6321s0.74643,0.83213,1.5727,1.9352c4.9953,6.6684,11.716,14.266,17.179,19.421,5.4786,5.1694,7.9758,6.8612,17.419,11.802,4.3477,2.2745,7.4262,4.1651,10.903,6.6958,2.0962,1.5258,3.7145,2.8513,14.863,12.174,2.516,2.1039,5.8348,4.8361,7.3751,6.0715,6.069,4.8675,6.8367,5.3414,8.681,5.3588,1.387,0.0131,2.4306-0.65166,3.3024-2.1035,2.3726-3.9508,2.293-8.7531-0.22642-13.66l-0.44663-0.86977,0.69302-0.27775c0.38116-0.15277,0.7502-0.24314,0.82008-0.20083,0.28126,0.17029,2.0707,4.1756,2.4508,5.4856,0.58367,2.0117,0.57043,5.6387-0.0282,7.742-0.53929,1.8946-1.3698,3.45-2.5057,4.6929s-2.1648,1.7434-3.8791,1.8871c-1.3195,0.11063-1.3398,0.10568-1.1347-0.27744z" stroke="#FFF" stroke-dasharray="none" stroke-width="0.578807" fill="#FFF"/>
  <path id="path5088" d="m188.9,923.54c-5.2914-7.2796-7.0131-10.154-9.5099-15.877-1.8545-4.2506-3.0896-6.4171-6.2473-10.958-4.7206-6.7886-4.7968-7.3056-1.5973-10.836,0.8977-0.99058,1.8594-2.2463,2.137-2.7906,1.0604-2.0785,1.7764-5.7578,2.2403-11.512,0.15881-1.9697,0.12157-2.2411-0.4099-2.9875-0.57039-0.80104-0.57435-0.85739-0.16323-2.3223,1.2492-4.4514,2.2536-6.9048,3.9114-9.5549,3.617-5.7817,3.5168-5.1574,3.5168-21.916,0-14.338,0.2224-13.03,0.52651,3.0987l0.19534,10.36,0.95933,0.26646c0.52763,0.14656,1.1376,0.26895,1.3554,0.27199,0.21785,0.003,0.55733,0.10769,0.75441,0.23256,0.40046,0.25374-0.5145,2.0886-6.1086,12.25l-3.1666,5.7519,0.17844,1.7416c0.37858,3.6952,2.258,5.6207,8.2632,8.4654,4.7262,2.2388,8.4889,2.8875,18.827,3.2458,9.6736,0.3353,13.048,0.52967,13.444,0.77439,0.21822,0.13486-0.18997,0.49566-1.2104,1.0698-0.8468,0.47648-4.3841,2.6444-7.8607,4.8176s-6.5066,4.0179-6.7333,4.0994c-0.22671,0.0815-2.1249,1.2188-4.2182,2.5274-4.2106,2.6323-6.5796,3.5909-10.585,4.2832-2.9806,0.51522-5.3988,0.37242-9.1821-0.54219-1.4114-0.3412-2.6087-0.5778-2.6607-0.52577-0.052,0.052,0.64468,1.1121,1.5482,2.3557,1.1996,1.6511,1.9088,2.9912,2.6286,4.9674,1.7738,4.8699,4.1559,9.0541,9.1322,16.041,4.006,5.6244,3.7896,5.219,3.4418,6.4496l-0.29298,1.0365-3.1139-4.2839zm-0.36884-29.065c2.7287-0.69789,5.6336-1.8907,8.4936-3.4877,2.7276-1.523,13.117-7.9349,13.017-8.0334-0.0365-0.0358-3.2745-0.25831-7.1957-0.49441-10.4-0.62625-14.407-1.4042-18.679-3.6271-1.6951-0.88189-2.5203-1.5596-4.5541-3.74-1.6888-1.8105-2.5266-2.5389-2.6174-2.2754-0.0734,0.21316-0.61267,2.2887-1.1984,4.6124-0.75985,3.0145-1.4156,4.9301-2.2889,6.6869-1.4177,2.8516-1.4539,3.8526-0.19746,5.4555,1.4436,1.8417,5.0337,4.2136,7.6101,5.028,1.6614,0.52515,5.3031,0.46544,7.6108-0.12479z" stroke="#FFF" stroke-dasharray="none" stroke-width="0.81855673" fill="#FFF"/>
  <path id="path5090" d="m160.53,816.53-1.0899-1.3987,0.96041-1.8277c0.52823-1.0052,1.0044-1.6959,1.058-1.5348,0.0537,0.16108-0.0127,0.49003-0.14755,0.73099-0.26006,0.4647,0.54159,2.9952,1.048,3.3082,0.16473,0.10181,0.0751,0.53361-0.23715,1.1422l-0.50201,0.97851-1.0899-1.3987z" stroke="#FFF" stroke-dasharray="none" stroke-width="0.81855673" fill="#FFF"/>
  <path id="path5092" d="m190.99,953.15c-3.9548-1.1739-8.2418-3.8101-12.426-7.6411-0.80761-0.73936-2.1944-1.879-3.0817-2.5325-0.88733-0.65352-3.9101-3.1935-6.7172-5.6444-7.785-6.797-10.653-8.8428-16.913-12.064-12.421-6.3922-22.799-14.924-32.926-27.069l-0.89827-1.0774-3.0969,1.4001c-6.4535,2.9176-9.3924,3.3673-21.904,3.3521-13.047-0.0159-16.613-0.41614-17.438-1.9569-0.36345-0.67911-0.0216-1.1388,1.3778-1.8527,1.2737-0.64978,3.5907-2.6476,8.2706-7.131,4.2018-4.0254,6.098-5.6624,7.7574-6.6966,0.63589-0.39634,1.4394-1.0362,1.7856-1.422,0.61455-0.68474,2.4712-4.2133,2.4712-4.6965,0-0.13852-1.1637-0.20106-2.7065-0.14545-2.8218,0.10172-3.046,0.0608-9.0437-1.6493-1.307-0.37267-2.4626-0.67798-2.568-0.67848-0.10534-0.00052-0.91085,1.4454-1.79,3.213-3.9612,7.9644-9.4391,14.22-17.597,20.095-4.3802,3.1546-6.6608,3.9865-10.92,3.9833-3.1815-0.002-4.748-0.47386-7.1567-2.1539-1.1536-0.80466-1.8422-1.6458-3.617-4.4183-11.182-17.468-20.52-40.347-26.977-66.092-2.0529-8.1855-4.4547-21.815-5.173-29.354-1.1689-12.27,0.63962-23.489,4.8223-29.915,1.6419-2.5223,6.2658-7.0831,9.0584-8.9349,6.5263-4.3276,14.496-7.1145,24.422-8.5395,8.9971-1.2917,15.074-1.4344,21.52-0.50517,3.8224,0.55097,5.4049,0.95404,11.486,2.9254,5.7872,1.876,7.5144,2.6054,9.1886,3.8799,0.61014,0.46448,1.2611,0.93743,1.4466,1.051,0.22074,0.13513,1.0876-0.45163,2.5085-1.698,4.625-4.0567,9.3384-6.5777,14.607-7.8126,1.695-0.39727,3.0527-0.48191,7.2355-0.45106,7.459,0.055,16.148,1.2124,22.54,3.0022l2.6041,0.72923,0.9654-0.96054c1.8093-1.8002,6.1734-3.5232,11.132-4.395,1.1827-0.20794,5.3181-0.63264,9.1897-0.94378,8.2426-0.66241,16.428-0.59685,19.846,0.15897,12.219,2.7018,21.962,11.779,25.149,23.429,0.54247,1.983,0.59291,2.711,0.56251,8.1194-0.0993,17.669-5.8354,37.609-18.306,63.636-1.4265,2.9772-2.8104,5.9477-3.0753,6.6013-0.26493,0.65352-2.3576,4.6574-4.6504,8.8975-4.5469,8.4088-4.5558,8.4353-3.7477,11.188,0.55053,1.8757,2.3711,3.6711,5.3909,5.3162,6.2183,3.3876,8.859,3.886,24.204,4.568,11.179,0.49684,11.714,0.58421,10.189,1.6631-0.95076,0.67236-16.251,10.022-20.005,12.225-5.7936,3.3994-8.5807,4.273-13.731,4.3039-2.4815,0.0149-4.0036-0.11476-5.4934-0.46788-1.1334-0.26865-2.103-0.44539-2.1547-0.39275-0.0517,0.0526,0.48308,1.0302,1.1884,2.1723,0.70529,1.1421,1.8371,3.3998,2.5151,5.017,1.5904,3.7934,2.4856,5.5677,4.2758,8.4747,1.2774,2.0742,4.8568,7.3508,6.9408,10.232,0.38965,0.53869,0.86562,1.3704,1.0577,1.8484,0.19208,0.47791,1.2381,2.2354,2.3244,3.9055,1.0864,1.6701,2.3578,3.6307,2.8254,4.3568,1.9289,2.9954,2.7852,5.8249,2.779,9.1825-0.0138,7.494-4.1253,11.968-9.5254,10.365zm2.8356-10.573c0.25976-3.1445-1.5119-6.6774-7.2813-14.52-6.1618-8.3758-8.6166-12.391-11.22-18.352-1.9868-4.5488-2.8655-6.0762-6.2284-10.825-3.5472-5.0094-4.6863-7.7602-4.2647-10.299,0.30518-1.8374,0.86385-2.8696,2.7277-5.0396,2.0424-2.3779,2.4518-3.1151,2.9504-5.314,0.46441-2.0478,0.99607-7.299,0.77519-7.6564-0.0892-0.14427-1.1783-1.706-2.4203-3.4706-5.8878-8.3648-10.238-16.861-13.135-25.653-2.2432-6.808-2.3688-7.64-2.3516-15.579,0.0136-6.2392,0.0681-7.058,0.59786-8.9777,1.1073-4.0126,3.7499-8.5562,6.3443-10.908,3.4924-3.1662,8.2807-5.7115,12.536-6.6638,0.82435-0.18448,1.4988-0.36128,1.4988-0.39288s-0.53359-1.6153-1.1858-3.5192c-3.2289-9.4268-7.6308-16.623-13.757-22.489-10.324-9.8862-25.802-15.289-43.839-15.303-4.4445-0.004-5.7717,0.25635-8.7188,1.707-7.7624,3.821-15.996,13.594-22.686,26.928-2.0307,4.0474-4.3289,9.699-6.4336,15.821-1.2947,3.7657-1.3255,3.9197-0.75258,3.7621,3.7634-1.0349,11.703-2.2224,16.355-2.4462,12.854-0.6183,21.324,4.9336,23.186,15.197,0.42496,2.3435,0.36517,8.0011-0.11885,11.247-0.73897,4.9558-3.008,14.421-5.0324,20.992-4.402,14.289-6.2353,20.415-6.2784,20.979-0.0472,0.61773,0.15083,0.76449,2.1356,1.5828,1.2032,0.49607,3.1923,1.5704,4.4203,2.3875,2.3322,1.5518,3.4334,2.7939,7.2597,8.1887,5.5974,7.8921,14.719,18.153,20.833,23.437,3.4454,2.9772,5.5453,4.327,12.828,8.246,9.6881,5.2133,11.627,6.5958,25.745,18.354,5.1556,4.2939,10.562,8.7249,12.014,9.8467l2.6405,2.0396,0.36206-0.85979c0.19913-0.47288,0.42105-1.574,0.49317-2.447zm-96.581-47.28c3.4764-0.44974,8.3554-1.5912,12.478-2.9193,3.3022-1.0638,3.2533-0.67711,0.54021-4.2699-2.2472-2.9758-3.0963-3.8734-4.69-4.9582l-1.3094-0.89122-0.63503,1.3361c-1.4036,2.9532-6.9913,7.3141-13.777,10.752l-3.3006,1.6723,3.8287-0.16473c2.1058-0.0906,5.1952-0.3415,6.8653-0.55756zm-40.976-0.78015c1.7501-0.51972,4.8248-2.6139,7.9556-5.4185,3.9562-3.544,7.4771-7.8046,10.876-13.161l1.408-2.2187-1.052-0.81299c-4.3262-3.3433-8.194-9.3392-10.514-16.299-0.97398-2.9218-1.7893-6.7089-2.3244-10.797-0.47474-3.6267-0.39854-14.552,0.13536-19.408,2.315-21.054,9.9048-41.932,21.186-58.277,1.0731-1.5548,1.951-2.935,1.951-3.0672,0-0.52665-6.6826-3.1113-10.972-4.2438-7.3414-1.9381-16.226-2.1231-25.731-0.53555-14.104,2.3557-24.721,8.0284-28.454,15.203-2.2169,4.2612-2.9674,8.3613-2.9649,16.198,0.006,17.891,4.0347,37.163,12.945,61.92,7.2669,20.191,17.667,40.461,21.247,41.411,0.74969,0.19908,2.7459-0.0297,4.3085-0.49369zm133.13-5.0103c1.0892-0.39781,2.931-1.2045,4.0928-1.7927l2.1124-1.0694-2.9046-0.48367c-4.9711-0.82779-9.9492-2.5176-12.256-4.1604-0.42004-0.2991-0.81567-0.54381-0.87918-0.54381-0.0635,0-0.25748,0.47395-0.43104,1.0532-0.17355,0.57928-0.66953,1.8422-1.1022,2.8065-0.57562,1.2829-0.71114,1.8442-0.50522,2.0923,0.50917,0.61352,3.0655,2.2629,4.1128,2.6536,1.6143,0.60225,5.3162,0.33727,7.7605-0.5555zm-93.506-20.83c1.3274-3.5479,6.7767-21.396,8.8377-28.947,1.3822-5.0637,1.9281-7.7787,2.1525-10.705,0.0886-1.1559,0.22226-2.4997,0.29698-2.9862l0.13584-0.88453-0.74305,0.71308c-1.0827,1.039-3.5714,2.159-5.6052,2.5225-1.6257,0.29053-1.9919,0.26186-4.4024-0.3447-1.4461-0.36387-3.4546-1.0622-4.4633-1.5518-2.0715-1.0055-4.5234-3.2308-5.3458-4.8517-1.2367-2.4374-1.3847-5.3319-0.37407-7.3142l0.46592-0.91388-2.5276,0.46226c-2.714,0.49636-5.8722,1.2525-8.8843,2.127l-1.8763,0.54478-0.43038,2.4153c-1.0782,6.0508-1.3296,9.4034-1.3396,17.862-0.0135,11.43,0.57772,14.482,4.2391,21.882,2.6705,5.3976,4.757,7.2157,10.489,9.1398,2.256,0.75729,7.6957,2.2013,8.401,2.2301,0.30065,0.0123,0.61385-0.43822,0.97412-1.4011zm81.252-17.196c0.4186-0.73498,0.6875-1.836,0.88417-3.6203,0.30838-2.7977,0.38693-18.99,0.11099-22.877l-0.17165-2.4182-0.88603,0.67582c-1.1617,0.88604-3.9506,2.1816-5.6972,2.6466-2.5312,0.67381-5.9638,0.44465-8.4972-0.56729-0.48236-0.19266-0.49739-0.0908-0.3375,2.2855,0.58162,8.6436,4.208,18.599,10.411,28.58l0.62622,1.0076,1.478-2.3279c0.81287-1.2804,1.7486-2.8032,2.0795-3.3841zm12.929-18.36c5.4703-12.803,10.626-29.878,11.439-37.882,0.45262-4.458,0.59559-11.4,0.32902-15.975-0.21623-3.7111-0.3722-4.7161-1.0523-6.7808-1.433-4.3502-3.3789-7.583-6.2966-10.461-2.9378-2.8975-5.7424-4.5457-10.108-5.9404-5.8858-1.8801-14.761-2.0784-25.198-0.56292-5.0347,0.73106-6.4572,1.0509-5.9604,1.3402,5.9943,3.491,9.1817,5.7785,12.601,9.0431,7.6707,7.3236,13.942,17.975,17.195,29.204,2.8922,9.985,4.2302,20.407,4.6907,36.537,0.12102,4.2387,0.26271,6.1549,0.43265,5.8513,0.13898-0.24835,1.0068-2.2164,1.9284-4.3734zm-87.95-10.021c0.58999-0.2529,1.2328-0.65275,1.4285-0.88854,1.2778-1.5396-2.6424-4.6612-5.8522-4.66-2.1692,0.0008-3.9054,1.4701-3.5256,2.9836,0.68052,2.7114,4.6326,3.9866,7.9493,2.5649zm-9.6333-2.1318c-0.77281-2.6946,1.4883-4.9953,4.9141-4.9999,2.2582-0.003,6.4261,2.1251,6.864,3.5048,0.0863,0.27188,0.21422,0.437,0.28428,0.36693,0.22724-0.22724-0.63612-1.6074-1.5393-2.4609-2.2935-2.167-5.0974-3.3072-8.133-3.3072-3.8417,0-5.8503,2.0689-4.7693,4.9123,0.2541,0.66833,2.3785,3.1491,2.5499,2.9777,0.0489-0.0489-0.0279-0.49604-0.17058-0.99365zm71.374-0.48176c-0.40399-3.012,2.6786-5.7843,6.7256-6.0486,3.549-0.23174,5.4824,1.0902,5.3033,3.6261-0.10527,1.4899,0.0714,1.4584,1.1232-0.20005,1.4695-2.3172,0.88925-4.5555-1.4573-5.6212-1.3711-0.62272-4.5273-0.66127-6.5081-0.0795-2.6244,0.77085-4.9349,2.4583-6.066,4.4305-1.0194,1.7773-1.0096,2.7913,0.0383,3.9848,0.45073,0.51335,0.8553,0.93336,0.89905,0.93336,0.0437,0,0.0177-0.46143-0.058-1.0254zm8.521-0.0662c2.0963-1.0608,2.751-1.9021,2.3521-3.0223-0.56054-1.5744-2.9652-2.352-5.3158-1.7191-2.5402,0.684-4.8564,3.1011-4.4652,4.6597,0.2353,0.93755,1.0177,1.1835,3.4681,1.0902,1.8174-0.0692,2.3955-0.21639,3.9608-1.0085zm4.3412-12.111c0-0.14523-0.20794-0.26224-0.46209-0.26001-0.3949,0.003-0.4045,0.0413-0.066,0.26001,0.49832,0.32203,0.5281,0.32203,0.5281,0z" stroke="#FFF" stroke-dasharray="none" stroke-width="0.81855673" fill="#FFF"/>
 </g>
</svg>
